<mxfile host="app.diagrams.net" modified="2023-11-21T21:07:24.876Z" agent="Mozilla/5.0 (Windows NT 10.0; Win64; x64) AppleWebKit/537.36 (KHTML, like Gecko) Chrome/119.0.0.0 Safari/537.36" etag="CbahHxkMiGsJd1CkcyXE" version="22.1.3" type="device" pages="10">
  <diagram id="C5RBs43oDa-KdzZeNtuy" name="Page-1">
    <mxGraphModel dx="683" dy="361" grid="0" gridSize="10" guides="1" tooltips="1" connect="1" arrows="1" fold="1" page="1" pageScale="1" pageWidth="827" pageHeight="1169" math="0" shadow="0">
      <root>
        <mxCell id="WIyWlLk6GJQsqaUBKTNV-0" />
        <mxCell id="WIyWlLk6GJQsqaUBKTNV-1" parent="WIyWlLk6GJQsqaUBKTNV-0" />
        <mxCell id="3UkrTASHzHVc0XtnFVxN-22" value="Программа" style="whiteSpace=wrap;html=1;aspect=fixed;" vertex="1" parent="WIyWlLk6GJQsqaUBKTNV-1">
          <mxGeometry x="196" y="286" width="80" height="80" as="geometry" />
        </mxCell>
        <mxCell id="3UkrTASHzHVc0XtnFVxN-23" value="Студент" style="whiteSpace=wrap;html=1;aspect=fixed;" vertex="1" parent="WIyWlLk6GJQsqaUBKTNV-1">
          <mxGeometry x="615" y="286" width="80" height="80" as="geometry" />
        </mxCell>
        <mxCell id="3UkrTASHzHVc0XtnFVxN-24" value="" style="endArrow=classic;html=1;rounded=0;exitX=1;exitY=0.5;exitDx=0;exitDy=0;entryX=0;entryY=0.25;entryDx=0;entryDy=0;" edge="1" parent="WIyWlLk6GJQsqaUBKTNV-1" source="3UkrTASHzHVc0XtnFVxN-27" target="3UkrTASHzHVc0XtnFVxN-23">
          <mxGeometry width="50" height="50" relative="1" as="geometry">
            <mxPoint x="395" y="439" as="sourcePoint" />
            <mxPoint x="445" y="389" as="targetPoint" />
          </mxGeometry>
        </mxCell>
        <mxCell id="3UkrTASHzHVc0XtnFVxN-25" value="Ответы студента" style="text;html=1;strokeColor=none;fillColor=none;align=center;verticalAlign=middle;whiteSpace=wrap;rounded=0;" vertex="1" parent="WIyWlLk6GJQsqaUBKTNV-1">
          <mxGeometry x="279" y="260" width="60" height="30" as="geometry" />
        </mxCell>
        <mxCell id="3UkrTASHzHVc0XtnFVxN-28" value="" style="endArrow=classic;html=1;rounded=0;exitX=1;exitY=0.25;exitDx=0;exitDy=0;entryX=0;entryY=0.5;entryDx=0;entryDy=0;" edge="1" parent="WIyWlLk6GJQsqaUBKTNV-1" source="3UkrTASHzHVc0XtnFVxN-22" target="3UkrTASHzHVc0XtnFVxN-27">
          <mxGeometry width="50" height="50" relative="1" as="geometry">
            <mxPoint x="278" y="307.5" as="sourcePoint" />
            <mxPoint x="391" y="302.5" as="targetPoint" />
          </mxGeometry>
        </mxCell>
        <mxCell id="3UkrTASHzHVc0XtnFVxN-27" value="Завершение&lt;br&gt;тестирования" style="rounded=1;whiteSpace=wrap;html=1;" vertex="1" parent="WIyWlLk6GJQsqaUBKTNV-1">
          <mxGeometry x="393" y="238" width="120" height="60" as="geometry" />
        </mxCell>
        <mxCell id="3UkrTASHzHVc0XtnFVxN-29" value="Результаты&lt;br&gt;тестирования" style="text;html=1;strokeColor=none;fillColor=none;align=center;verticalAlign=middle;whiteSpace=wrap;rounded=0;" vertex="1" parent="WIyWlLk6GJQsqaUBKTNV-1">
          <mxGeometry x="549" y="249" width="60" height="30" as="geometry" />
        </mxCell>
        <mxCell id="3UkrTASHzHVc0XtnFVxN-30" value="" style="endArrow=classic;html=1;rounded=0;exitX=0;exitY=0.75;exitDx=0;exitDy=0;entryX=1;entryY=0.75;entryDx=0;entryDy=0;" edge="1" parent="WIyWlLk6GJQsqaUBKTNV-1" source="3UkrTASHzHVc0XtnFVxN-31" target="3UkrTASHzHVc0XtnFVxN-22">
          <mxGeometry width="50" height="50" relative="1" as="geometry">
            <mxPoint x="416" y="408" as="sourcePoint" />
            <mxPoint x="466" y="358" as="targetPoint" />
          </mxGeometry>
        </mxCell>
        <mxCell id="3UkrTASHzHVc0XtnFVxN-32" value="" style="endArrow=classic;html=1;rounded=0;exitX=0;exitY=0.75;exitDx=0;exitDy=0;entryX=1;entryY=0.75;entryDx=0;entryDy=0;" edge="1" parent="WIyWlLk6GJQsqaUBKTNV-1" source="3UkrTASHzHVc0XtnFVxN-23" target="3UkrTASHzHVc0XtnFVxN-31">
          <mxGeometry width="50" height="50" relative="1" as="geometry">
            <mxPoint x="615" y="346" as="sourcePoint" />
            <mxPoint x="276" y="346" as="targetPoint" />
          </mxGeometry>
        </mxCell>
        <mxCell id="3UkrTASHzHVc0XtnFVxN-31" value="Продвижение&lt;br&gt;по вопросам" style="rounded=1;whiteSpace=wrap;html=1;" vertex="1" parent="WIyWlLk6GJQsqaUBKTNV-1">
          <mxGeometry x="387" y="337" width="120" height="60" as="geometry" />
        </mxCell>
        <mxCell id="3UkrTASHzHVc0XtnFVxN-33" value="Ответ на&lt;br&gt;вопрос" style="text;html=1;strokeColor=none;fillColor=none;align=center;verticalAlign=middle;whiteSpace=wrap;rounded=0;" vertex="1" parent="WIyWlLk6GJQsqaUBKTNV-1">
          <mxGeometry x="514" y="330" width="59" height="30" as="geometry" />
        </mxCell>
        <mxCell id="3UkrTASHzHVc0XtnFVxN-34" value="Ответ на&lt;br&gt;вопрос" style="text;html=1;strokeColor=none;fillColor=none;align=center;verticalAlign=middle;whiteSpace=wrap;rounded=0;" vertex="1" parent="WIyWlLk6GJQsqaUBKTNV-1">
          <mxGeometry x="305" y="328" width="59" height="30" as="geometry" />
        </mxCell>
        <mxCell id="3UkrTASHzHVc0XtnFVxN-35" value="Предоставление&lt;br&gt;теории" style="rounded=1;whiteSpace=wrap;html=1;" vertex="1" parent="WIyWlLk6GJQsqaUBKTNV-1">
          <mxGeometry x="387" y="415" width="120" height="60" as="geometry" />
        </mxCell>
        <mxCell id="3UkrTASHzHVc0XtnFVxN-36" value="" style="endArrow=classic;html=1;rounded=0;exitX=1;exitY=0.887;exitDx=0;exitDy=0;entryX=0;entryY=0.5;entryDx=0;entryDy=0;exitPerimeter=0;" edge="1" parent="WIyWlLk6GJQsqaUBKTNV-1" source="3UkrTASHzHVc0XtnFVxN-22" target="3UkrTASHzHVc0XtnFVxN-35">
          <mxGeometry width="50" height="50" relative="1" as="geometry">
            <mxPoint x="416" y="408" as="sourcePoint" />
            <mxPoint x="466" y="358" as="targetPoint" />
          </mxGeometry>
        </mxCell>
        <mxCell id="3UkrTASHzHVc0XtnFVxN-37" value="" style="endArrow=classic;html=1;rounded=0;exitX=1;exitY=0.5;exitDx=0;exitDy=0;entryX=-0.005;entryY=0.853;entryDx=0;entryDy=0;entryPerimeter=0;" edge="1" parent="WIyWlLk6GJQsqaUBKTNV-1" source="3UkrTASHzHVc0XtnFVxN-35" target="3UkrTASHzHVc0XtnFVxN-23">
          <mxGeometry width="50" height="50" relative="1" as="geometry">
            <mxPoint x="416" y="408" as="sourcePoint" />
            <mxPoint x="466" y="358" as="targetPoint" />
          </mxGeometry>
        </mxCell>
        <mxCell id="3UkrTASHzHVc0XtnFVxN-38" value="Теоретические&lt;br&gt;положения" style="text;html=1;strokeColor=none;fillColor=none;align=center;verticalAlign=middle;whiteSpace=wrap;rounded=0;" vertex="1" parent="WIyWlLk6GJQsqaUBKTNV-1">
          <mxGeometry x="266" y="402" width="60" height="30" as="geometry" />
        </mxCell>
        <mxCell id="3UkrTASHzHVc0XtnFVxN-39" value="Теоретические&lt;br&gt;положения" style="text;html=1;strokeColor=none;fillColor=none;align=center;verticalAlign=middle;whiteSpace=wrap;rounded=0;" vertex="1" parent="WIyWlLk6GJQsqaUBKTNV-1">
          <mxGeometry x="562" y="407" width="60" height="30" as="geometry" />
        </mxCell>
      </root>
    </mxGraphModel>
  </diagram>
  <diagram name="EndsWith3AndWith5UnderMinorDiagonalCount" id="TGWkVnKVJc8KSdBgTgtH">
    <mxGraphModel dx="1613" dy="1040" grid="1" gridSize="10" guides="1" tooltips="1" connect="1" arrows="1" fold="1" page="1" pageScale="1" pageWidth="1600" pageHeight="1200" math="0" shadow="0">
      <root>
        <mxCell id="0" />
        <mxCell id="1" parent="0" />
        <mxCell id="Dx3A27PK3qYm2y0LI6H_-5" style="edgeStyle=orthogonalEdgeStyle;rounded=0;orthogonalLoop=1;jettySize=auto;html=1;exitX=0.5;exitY=1;exitDx=0;exitDy=0;entryX=0.5;entryY=0;entryDx=0;entryDy=0;fontFamily=Helvetica;fontSize=12;fontColor=default;endArrow=none;endFill=0;strokeWidth=2;" edge="1" parent="1" source="Dx3A27PK3qYm2y0LI6H_-1" target="Dx3A27PK3qYm2y0LI6H_-4">
          <mxGeometry relative="1" as="geometry" />
        </mxCell>
        <mxCell id="Dx3A27PK3qYm2y0LI6H_-1" value="&lt;font face=&quot;Cascadia Mono&quot;&gt;EndsWith3AndWith5UnderMinorDiagonalCount&lt;/font&gt;" style="rounded=1;whiteSpace=wrap;html=1;arcSize=50;strokeWidth=2;" vertex="1" parent="1">
          <mxGeometry x="380" y="180" width="310" height="70" as="geometry" />
        </mxCell>
        <mxCell id="Dx3A27PK3qYm2y0LI6H_-2" value="&lt;font face=&quot;Cascadia Mono&quot;&gt;Входные параметры:&lt;br&gt;matrix — матрица&lt;br&gt;sideLength — длина стороны квадратной матрицы&lt;br&gt;&lt;br&gt;Выходные параметры:&lt;br&gt;endsWith3Count — кол-во чисел, заканчивающихся на 3&lt;br&gt;endsWith5UnderMinorDiagonalCount — кол-во чисел&lt;br&gt;ниже главной диагонали, заканчивающихся на 5&lt;br&gt;&lt;/font&gt;" style="strokeWidth=2;html=1;shape=mxgraph.flowchart.annotation_1;align=left;pointerEvents=1;rounded=1;strokeColor=default;verticalAlign=middle;fontFamily=Helvetica;fontSize=12;fontColor=default;fillColor=default;spacingLeft=30;" vertex="1" parent="1">
          <mxGeometry x="720" y="145" width="30" height="140" as="geometry" />
        </mxCell>
        <mxCell id="Dx3A27PK3qYm2y0LI6H_-3" style="rounded=0;orthogonalLoop=1;jettySize=auto;html=1;exitX=1;exitY=0.5;exitDx=0;exitDy=0;entryX=0;entryY=0.5;entryDx=0;entryDy=0;entryPerimeter=0;fontFamily=Helvetica;fontSize=12;fontColor=default;dashed=1;strokeWidth=2;endArrow=none;endFill=0;dashPattern=1 2;" edge="1" parent="1" source="Dx3A27PK3qYm2y0LI6H_-1" target="Dx3A27PK3qYm2y0LI6H_-2">
          <mxGeometry relative="1" as="geometry" />
        </mxCell>
        <mxCell id="Dx3A27PK3qYm2y0LI6H_-7" style="edgeStyle=orthogonalEdgeStyle;shape=connector;rounded=0;orthogonalLoop=1;jettySize=auto;html=1;exitX=0.5;exitY=1;exitDx=0;exitDy=0;entryX=0.5;entryY=0;entryDx=0;entryDy=0;labelBackgroundColor=default;strokeColor=default;strokeWidth=2;align=center;verticalAlign=middle;fontFamily=Helvetica;fontSize=12;fontColor=default;endArrow=none;endFill=0;" edge="1" parent="1" source="Dx3A27PK3qYm2y0LI6H_-4" target="Dx3A27PK3qYm2y0LI6H_-6">
          <mxGeometry relative="1" as="geometry" />
        </mxCell>
        <mxCell id="Dx3A27PK3qYm2y0LI6H_-4" value="endsWith3Count = 0" style="rounded=0;whiteSpace=wrap;html=1;strokeColor=default;strokeWidth=2;align=center;verticalAlign=middle;fontFamily=Cascadia Mono;fontSize=12;fontColor=default;fillColor=default;" vertex="1" parent="1">
          <mxGeometry x="380" y="290" width="310" height="60" as="geometry" />
        </mxCell>
        <mxCell id="Dx3A27PK3qYm2y0LI6H_-11" style="edgeStyle=orthogonalEdgeStyle;shape=connector;rounded=0;orthogonalLoop=1;jettySize=auto;html=1;exitX=0.5;exitY=1;exitDx=0;exitDy=0;entryX=0.5;entryY=0;entryDx=0;entryDy=0;labelBackgroundColor=default;strokeColor=default;strokeWidth=2;align=center;verticalAlign=middle;fontFamily=Helvetica;fontSize=12;fontColor=default;endArrow=none;endFill=0;" edge="1" parent="1" source="Dx3A27PK3qYm2y0LI6H_-6" target="Dx3A27PK3qYm2y0LI6H_-9">
          <mxGeometry relative="1" as="geometry" />
        </mxCell>
        <mxCell id="Dx3A27PK3qYm2y0LI6H_-6" value="endsWith5UnderMinorDiagonalCount = 0" style="rounded=0;whiteSpace=wrap;html=1;strokeColor=default;strokeWidth=2;align=center;verticalAlign=middle;fontFamily=Cascadia Mono;fontSize=12;fontColor=default;fillColor=default;" vertex="1" parent="1">
          <mxGeometry x="380" y="390" width="310" height="60" as="geometry" />
        </mxCell>
        <mxCell id="Dx3A27PK3qYm2y0LI6H_-15" style="edgeStyle=orthogonalEdgeStyle;shape=connector;rounded=0;orthogonalLoop=1;jettySize=auto;html=1;exitX=0.5;exitY=1;exitDx=0;exitDy=0;entryX=0.5;entryY=0;entryDx=0;entryDy=0;labelBackgroundColor=default;strokeColor=default;strokeWidth=2;align=center;verticalAlign=middle;fontFamily=Cascadia Mono;fontSize=12;fontColor=default;endArrow=none;endFill=0;" edge="1" parent="1" source="Dx3A27PK3qYm2y0LI6H_-9" target="Dx3A27PK3qYm2y0LI6H_-12">
          <mxGeometry relative="1" as="geometry" />
        </mxCell>
        <mxCell id="Dx3A27PK3qYm2y0LI6H_-9" value="i = 0; i &amp;lt; sideLength; i++" style="shape=loopLimit;whiteSpace=wrap;html=1;rounded=0;strokeColor=default;strokeWidth=2;align=center;verticalAlign=middle;fontFamily=Cascadia Mono;fontSize=12;fontColor=default;fillColor=default;arcSize=0;" vertex="1" parent="1">
          <mxGeometry x="380" y="490" width="310" height="60" as="geometry" />
        </mxCell>
        <mxCell id="Dx3A27PK3qYm2y0LI6H_-14" style="edgeStyle=orthogonalEdgeStyle;shape=connector;rounded=0;orthogonalLoop=1;jettySize=auto;html=1;exitX=0.5;exitY=1;exitDx=0;exitDy=0;entryX=0.5;entryY=0;entryDx=0;entryDy=0;labelBackgroundColor=default;strokeColor=default;strokeWidth=2;align=center;verticalAlign=middle;fontFamily=Cascadia Mono;fontSize=12;fontColor=default;endArrow=none;endFill=0;" edge="1" parent="1" source="Dx3A27PK3qYm2y0LI6H_-10" target="Dx3A27PK3qYm2y0LI6H_-13">
          <mxGeometry relative="1" as="geometry" />
        </mxCell>
        <mxCell id="Dx3A27PK3qYm2y0LI6H_-10" value="j" style="shape=loopLimit;whiteSpace=wrap;html=1;rounded=1;strokeColor=default;strokeWidth=2;align=center;verticalAlign=middle;fontFamily=Cascadia Mono;fontSize=12;fontColor=default;fillColor=default;arcSize=0;flipV=1;" vertex="1" parent="1">
          <mxGeometry x="380" y="1130" width="310" height="60" as="geometry" />
        </mxCell>
        <mxCell id="Dx3A27PK3qYm2y0LI6H_-17" style="edgeStyle=orthogonalEdgeStyle;shape=connector;rounded=0;orthogonalLoop=1;jettySize=auto;html=1;exitX=0.5;exitY=1;exitDx=0;exitDy=0;entryX=0.5;entryY=0;entryDx=0;entryDy=0;labelBackgroundColor=default;strokeColor=default;strokeWidth=2;align=center;verticalAlign=middle;fontFamily=Cascadia Mono;fontSize=12;fontColor=default;endArrow=none;endFill=0;" edge="1" parent="1" source="Dx3A27PK3qYm2y0LI6H_-12" target="Dx3A27PK3qYm2y0LI6H_-16">
          <mxGeometry relative="1" as="geometry" />
        </mxCell>
        <mxCell id="Dx3A27PK3qYm2y0LI6H_-12" value="j = 0; j &amp;lt; sideLength; j++" style="shape=loopLimit;whiteSpace=wrap;html=1;rounded=0;strokeColor=default;strokeWidth=2;align=center;verticalAlign=middle;fontFamily=Cascadia Mono;fontSize=12;fontColor=default;fillColor=default;arcSize=0;size=20;" vertex="1" parent="1">
          <mxGeometry x="380" y="590" width="310" height="60" as="geometry" />
        </mxCell>
        <mxCell id="Dx3A27PK3qYm2y0LI6H_-34" style="edgeStyle=orthogonalEdgeStyle;shape=connector;rounded=0;orthogonalLoop=1;jettySize=auto;html=1;exitX=0.5;exitY=1;exitDx=0;exitDy=0;entryX=0.5;entryY=0;entryDx=0;entryDy=0;labelBackgroundColor=default;strokeColor=default;strokeWidth=2;align=center;verticalAlign=middle;fontFamily=Cascadia Mono;fontSize=12;fontColor=default;endArrow=none;endFill=0;" edge="1" parent="1" source="Dx3A27PK3qYm2y0LI6H_-13" target="Dx3A27PK3qYm2y0LI6H_-33">
          <mxGeometry relative="1" as="geometry" />
        </mxCell>
        <mxCell id="Dx3A27PK3qYm2y0LI6H_-13" value="i" style="shape=loopLimit;whiteSpace=wrap;html=1;rounded=1;strokeColor=default;strokeWidth=2;align=center;verticalAlign=middle;fontFamily=Cascadia Mono;fontSize=12;fontColor=default;fillColor=default;arcSize=0;flipV=1;" vertex="1" parent="1">
          <mxGeometry x="380" y="1230" width="310" height="60" as="geometry" />
        </mxCell>
        <mxCell id="Dx3A27PK3qYm2y0LI6H_-19" style="edgeStyle=orthogonalEdgeStyle;shape=connector;rounded=0;orthogonalLoop=1;jettySize=auto;html=1;exitX=1;exitY=0.5;exitDx=0;exitDy=0;entryX=0.5;entryY=0;entryDx=0;entryDy=0;labelBackgroundColor=default;strokeColor=default;strokeWidth=2;align=center;verticalAlign=middle;fontFamily=Cascadia Mono;fontSize=12;fontColor=default;endArrow=none;endFill=0;" edge="1" parent="1" source="Dx3A27PK3qYm2y0LI6H_-16" target="Dx3A27PK3qYm2y0LI6H_-18">
          <mxGeometry relative="1" as="geometry" />
        </mxCell>
        <mxCell id="Dx3A27PK3qYm2y0LI6H_-28" value="да" style="edgeLabel;html=1;align=center;verticalAlign=middle;resizable=0;points=[];fontSize=12;fontFamily=Cascadia Mono;fontColor=default;" vertex="1" connectable="0" parent="Dx3A27PK3qYm2y0LI6H_-19">
          <mxGeometry x="-0.39" y="-1" relative="1" as="geometry">
            <mxPoint as="offset" />
          </mxGeometry>
        </mxCell>
        <mxCell id="Dx3A27PK3qYm2y0LI6H_-26" style="edgeStyle=orthogonalEdgeStyle;shape=connector;rounded=0;orthogonalLoop=1;jettySize=auto;html=1;exitX=0;exitY=0.5;exitDx=0;exitDy=0;entryX=0.5;entryY=0;entryDx=0;entryDy=0;labelBackgroundColor=default;strokeColor=default;strokeWidth=2;align=center;verticalAlign=middle;fontFamily=Cascadia Mono;fontSize=12;fontColor=default;endArrow=none;endFill=0;" edge="1" parent="1" source="Dx3A27PK3qYm2y0LI6H_-16" target="Dx3A27PK3qYm2y0LI6H_-23">
          <mxGeometry relative="1" as="geometry">
            <Array as="points">
              <mxPoint x="310" y="730" />
              <mxPoint x="310" y="890" />
              <mxPoint x="535" y="890" />
            </Array>
          </mxGeometry>
        </mxCell>
        <mxCell id="Dx3A27PK3qYm2y0LI6H_-27" value="нет" style="edgeLabel;html=1;align=center;verticalAlign=middle;resizable=0;points=[];fontSize=12;fontFamily=Cascadia Mono;fontColor=default;" vertex="1" connectable="0" parent="Dx3A27PK3qYm2y0LI6H_-26">
          <mxGeometry x="-0.8484" y="5" relative="1" as="geometry">
            <mxPoint y="-5" as="offset" />
          </mxGeometry>
        </mxCell>
        <mxCell id="Dx3A27PK3qYm2y0LI6H_-16" value="matrix[i][j] % 10 == 3" style="rhombus;whiteSpace=wrap;html=1;rounded=0;strokeColor=default;strokeWidth=2;align=center;verticalAlign=middle;fontFamily=Cascadia Mono;fontSize=12;fontColor=default;fillColor=default;arcSize=0;" vertex="1" parent="1">
          <mxGeometry x="380" y="690" width="310" height="80" as="geometry" />
        </mxCell>
        <mxCell id="Dx3A27PK3qYm2y0LI6H_-25" style="edgeStyle=orthogonalEdgeStyle;shape=connector;rounded=0;orthogonalLoop=1;jettySize=auto;html=1;exitX=0.5;exitY=1;exitDx=0;exitDy=0;entryX=0.5;entryY=0;entryDx=0;entryDy=0;labelBackgroundColor=default;strokeColor=default;strokeWidth=2;align=center;verticalAlign=middle;fontFamily=Cascadia Mono;fontSize=12;fontColor=default;endArrow=none;endFill=0;" edge="1" parent="1" source="Dx3A27PK3qYm2y0LI6H_-18" target="Dx3A27PK3qYm2y0LI6H_-23">
          <mxGeometry relative="1" as="geometry" />
        </mxCell>
        <mxCell id="Dx3A27PK3qYm2y0LI6H_-18" value="endsWith3Count++" style="rounded=0;whiteSpace=wrap;html=1;strokeColor=default;strokeWidth=2;align=center;verticalAlign=middle;fontFamily=Cascadia Mono;fontSize=12;fontColor=default;fillColor=default;" vertex="1" parent="1">
          <mxGeometry x="690" y="810" width="280" height="60" as="geometry" />
        </mxCell>
        <mxCell id="Dx3A27PK3qYm2y0LI6H_-22" style="edgeStyle=orthogonalEdgeStyle;shape=connector;rounded=0;orthogonalLoop=1;jettySize=auto;html=1;exitX=1;exitY=0.5;exitDx=0;exitDy=0;entryX=0.5;entryY=0;entryDx=0;entryDy=0;labelBackgroundColor=default;strokeColor=default;strokeWidth=2;align=center;verticalAlign=middle;fontFamily=Cascadia Mono;fontSize=12;fontColor=default;endArrow=none;endFill=0;" edge="1" parent="1" source="Dx3A27PK3qYm2y0LI6H_-23" target="Dx3A27PK3qYm2y0LI6H_-24">
          <mxGeometry relative="1" as="geometry" />
        </mxCell>
        <mxCell id="Dx3A27PK3qYm2y0LI6H_-32" value="да" style="edgeLabel;html=1;align=center;verticalAlign=middle;resizable=0;points=[];fontSize=12;fontFamily=Cascadia Mono;fontColor=default;" vertex="1" connectable="0" parent="Dx3A27PK3qYm2y0LI6H_-22">
          <mxGeometry x="-0.3818" relative="1" as="geometry">
            <mxPoint as="offset" />
          </mxGeometry>
        </mxCell>
        <mxCell id="Dx3A27PK3qYm2y0LI6H_-29" style="edgeStyle=orthogonalEdgeStyle;shape=connector;rounded=0;orthogonalLoop=1;jettySize=auto;html=1;exitX=0;exitY=0.5;exitDx=0;exitDy=0;entryX=0.5;entryY=0;entryDx=0;entryDy=0;labelBackgroundColor=default;strokeColor=default;strokeWidth=2;align=center;verticalAlign=middle;fontFamily=Cascadia Mono;fontSize=12;fontColor=default;endArrow=none;endFill=0;" edge="1" parent="1" source="Dx3A27PK3qYm2y0LI6H_-23" target="Dx3A27PK3qYm2y0LI6H_-10">
          <mxGeometry relative="1" as="geometry">
            <Array as="points">
              <mxPoint x="310" y="950" />
              <mxPoint x="310" y="1110" />
              <mxPoint x="535" y="1110" />
            </Array>
          </mxGeometry>
        </mxCell>
        <mxCell id="Dx3A27PK3qYm2y0LI6H_-31" value="нет" style="edgeLabel;html=1;align=center;verticalAlign=middle;resizable=0;points=[];fontSize=12;fontFamily=Cascadia Mono;fontColor=default;" vertex="1" connectable="0" parent="Dx3A27PK3qYm2y0LI6H_-29">
          <mxGeometry x="-0.8568" y="-2" relative="1" as="geometry">
            <mxPoint as="offset" />
          </mxGeometry>
        </mxCell>
        <mxCell id="Dx3A27PK3qYm2y0LI6H_-23" value="matrix[i][j] % 10 == 3" style="rhombus;whiteSpace=wrap;html=1;rounded=0;strokeColor=default;strokeWidth=2;align=center;verticalAlign=middle;fontFamily=Cascadia Mono;fontSize=12;fontColor=default;fillColor=default;arcSize=0;" vertex="1" parent="1">
          <mxGeometry x="380" y="910" width="310" height="80" as="geometry" />
        </mxCell>
        <mxCell id="Dx3A27PK3qYm2y0LI6H_-30" style="edgeStyle=orthogonalEdgeStyle;shape=connector;rounded=0;orthogonalLoop=1;jettySize=auto;html=1;exitX=0.5;exitY=1;exitDx=0;exitDy=0;entryX=0.5;entryY=0;entryDx=0;entryDy=0;labelBackgroundColor=default;strokeColor=default;strokeWidth=2;align=center;verticalAlign=middle;fontFamily=Cascadia Mono;fontSize=12;fontColor=default;endArrow=none;endFill=0;" edge="1" parent="1" source="Dx3A27PK3qYm2y0LI6H_-24" target="Dx3A27PK3qYm2y0LI6H_-10">
          <mxGeometry relative="1" as="geometry" />
        </mxCell>
        <mxCell id="Dx3A27PK3qYm2y0LI6H_-24" value="endsWith5UnderMinorDiagonalCount++" style="rounded=0;whiteSpace=wrap;html=1;strokeColor=default;strokeWidth=2;align=center;verticalAlign=middle;fontFamily=Cascadia Mono;fontSize=12;fontColor=default;fillColor=default;" vertex="1" parent="1">
          <mxGeometry x="690" y="1030" width="280" height="60" as="geometry" />
        </mxCell>
        <mxCell id="Dx3A27PK3qYm2y0LI6H_-33" value="&lt;font face=&quot;Cascadia Mono&quot;&gt;Конец&lt;/font&gt;" style="rounded=1;whiteSpace=wrap;html=1;arcSize=50;strokeWidth=2;" vertex="1" parent="1">
          <mxGeometry x="380" y="1330" width="310" height="70" as="geometry" />
        </mxCell>
      </root>
    </mxGraphModel>
  </diagram>
  <diagram name="CreateArrayAboveThreshold" id="oUin3fJlYGRJygLUsa3o">
    <mxGraphModel dx="1371" dy="884" grid="1" gridSize="10" guides="1" tooltips="1" connect="1" arrows="1" fold="1" page="1" pageScale="1" pageWidth="1600" pageHeight="1200" math="0" shadow="0">
      <root>
        <mxCell id="0" />
        <mxCell id="1" parent="0" />
        <mxCell id="G_j7bIVwT-zga_MA3Yqq-1" style="edgeStyle=orthogonalEdgeStyle;rounded=0;orthogonalLoop=1;jettySize=auto;html=1;exitX=0.5;exitY=1;exitDx=0;exitDy=0;entryX=0.5;entryY=0;entryDx=0;entryDy=0;fontFamily=Helvetica;fontSize=12;fontColor=default;endArrow=none;endFill=0;strokeWidth=2;" edge="1" parent="1" source="G_j7bIVwT-zga_MA3Yqq-2" target="G_j7bIVwT-zga_MA3Yqq-6">
          <mxGeometry relative="1" as="geometry" />
        </mxCell>
        <mxCell id="G_j7bIVwT-zga_MA3Yqq-2" value="&lt;font face=&quot;Cascadia Mono&quot;&gt;CreateArrayAboveThreshold&lt;/font&gt;" style="rounded=1;whiteSpace=wrap;html=1;arcSize=50;strokeWidth=2;" vertex="1" parent="1">
          <mxGeometry x="380" y="180" width="310" height="70" as="geometry" />
        </mxCell>
        <mxCell id="G_j7bIVwT-zga_MA3Yqq-3" value="&lt;font face=&quot;Cascadia Mono&quot;&gt;Входные параметры:&lt;br&gt;matrix — матрица&lt;br&gt;sideLength — длина стороны квадратной матрицы&lt;br&gt;threshold — граница, выше к-рой будут&lt;br&gt;выбираться числа&lt;br&gt;&lt;br&gt;Выходные параметры:&lt;br&gt;arrayLength — длина массива&lt;br&gt;&lt;br&gt;Возвращает:&lt;br&gt;новый массив&lt;br&gt;&lt;/font&gt;" style="strokeWidth=2;html=1;shape=mxgraph.flowchart.annotation_1;align=left;pointerEvents=1;rounded=1;strokeColor=default;verticalAlign=middle;fontFamily=Helvetica;fontSize=12;fontColor=default;fillColor=default;spacingLeft=30;" vertex="1" parent="1">
          <mxGeometry x="720" y="145" width="30" height="185" as="geometry" />
        </mxCell>
        <mxCell id="G_j7bIVwT-zga_MA3Yqq-4" style="rounded=0;orthogonalLoop=1;jettySize=auto;html=1;exitX=1;exitY=0.5;exitDx=0;exitDy=0;entryX=0;entryY=0.5;entryDx=0;entryDy=0;entryPerimeter=0;fontFamily=Helvetica;fontSize=12;fontColor=default;dashed=1;strokeWidth=2;endArrow=none;endFill=0;dashPattern=1 2;" edge="1" parent="1" source="G_j7bIVwT-zga_MA3Yqq-2" target="G_j7bIVwT-zga_MA3Yqq-3">
          <mxGeometry relative="1" as="geometry" />
        </mxCell>
        <mxCell id="G_j7bIVwT-zga_MA3Yqq-5" style="edgeStyle=orthogonalEdgeStyle;shape=connector;rounded=0;orthogonalLoop=1;jettySize=auto;html=1;exitX=0.5;exitY=1;exitDx=0;exitDy=0;entryX=0.5;entryY=0;entryDx=0;entryDy=0;labelBackgroundColor=default;strokeColor=default;strokeWidth=2;align=center;verticalAlign=middle;fontFamily=Helvetica;fontSize=12;fontColor=default;endArrow=none;endFill=0;" edge="1" parent="1" source="G_j7bIVwT-zga_MA3Yqq-6" target="G_j7bIVwT-zga_MA3Yqq-8">
          <mxGeometry relative="1" as="geometry" />
        </mxCell>
        <mxCell id="G_j7bIVwT-zga_MA3Yqq-6" value="arr = new int[sideLength * sideLength]" style="rounded=0;whiteSpace=wrap;html=1;strokeColor=default;strokeWidth=2;align=center;verticalAlign=middle;fontFamily=Cascadia Mono;fontSize=12;fontColor=default;fillColor=default;" vertex="1" parent="1">
          <mxGeometry x="380" y="290" width="310" height="60" as="geometry" />
        </mxCell>
        <mxCell id="G_j7bIVwT-zga_MA3Yqq-7" style="edgeStyle=orthogonalEdgeStyle;shape=connector;rounded=0;orthogonalLoop=1;jettySize=auto;html=1;exitX=0.5;exitY=1;exitDx=0;exitDy=0;entryX=0.5;entryY=0;entryDx=0;entryDy=0;labelBackgroundColor=default;strokeColor=default;strokeWidth=2;align=center;verticalAlign=middle;fontFamily=Helvetica;fontSize=12;fontColor=default;endArrow=none;endFill=0;" edge="1" parent="1" source="G_j7bIVwT-zga_MA3Yqq-8" target="G_j7bIVwT-zga_MA3Yqq-10">
          <mxGeometry relative="1" as="geometry" />
        </mxCell>
        <mxCell id="G_j7bIVwT-zga_MA3Yqq-8" value="arrayLength = 0" style="rounded=0;whiteSpace=wrap;html=1;strokeColor=default;strokeWidth=2;align=center;verticalAlign=middle;fontFamily=Cascadia Mono;fontSize=12;fontColor=default;fillColor=default;" vertex="1" parent="1">
          <mxGeometry x="380" y="390" width="310" height="60" as="geometry" />
        </mxCell>
        <mxCell id="G_j7bIVwT-zga_MA3Yqq-9" style="edgeStyle=orthogonalEdgeStyle;shape=connector;rounded=0;orthogonalLoop=1;jettySize=auto;html=1;exitX=0.5;exitY=1;exitDx=0;exitDy=0;entryX=0.5;entryY=0;entryDx=0;entryDy=0;labelBackgroundColor=default;strokeColor=default;strokeWidth=2;align=center;verticalAlign=middle;fontFamily=Cascadia Mono;fontSize=12;fontColor=default;endArrow=none;endFill=0;" edge="1" parent="1" source="G_j7bIVwT-zga_MA3Yqq-10" target="G_j7bIVwT-zga_MA3Yqq-14">
          <mxGeometry relative="1" as="geometry" />
        </mxCell>
        <mxCell id="G_j7bIVwT-zga_MA3Yqq-10" value="i = 0; i &amp;lt; sideLength; i++" style="shape=loopLimit;whiteSpace=wrap;html=1;rounded=0;strokeColor=default;strokeWidth=2;align=center;verticalAlign=middle;fontFamily=Cascadia Mono;fontSize=12;fontColor=default;fillColor=default;arcSize=0;" vertex="1" parent="1">
          <mxGeometry x="380" y="490" width="310" height="60" as="geometry" />
        </mxCell>
        <mxCell id="G_j7bIVwT-zga_MA3Yqq-11" style="edgeStyle=orthogonalEdgeStyle;shape=connector;rounded=0;orthogonalLoop=1;jettySize=auto;html=1;exitX=0.5;exitY=1;exitDx=0;exitDy=0;entryX=0.5;entryY=0;entryDx=0;entryDy=0;labelBackgroundColor=default;strokeColor=default;strokeWidth=2;align=center;verticalAlign=middle;fontFamily=Cascadia Mono;fontSize=12;fontColor=default;endArrow=none;endFill=0;" edge="1" parent="1" source="G_j7bIVwT-zga_MA3Yqq-12" target="G_j7bIVwT-zga_MA3Yqq-16">
          <mxGeometry relative="1" as="geometry" />
        </mxCell>
        <mxCell id="G_j7bIVwT-zga_MA3Yqq-12" value="j" style="shape=loopLimit;whiteSpace=wrap;html=1;rounded=1;strokeColor=default;strokeWidth=2;align=center;verticalAlign=middle;fontFamily=Cascadia Mono;fontSize=12;fontColor=default;fillColor=default;arcSize=0;flipV=1;" vertex="1" parent="1">
          <mxGeometry x="380" y="910" width="310" height="60" as="geometry" />
        </mxCell>
        <mxCell id="G_j7bIVwT-zga_MA3Yqq-13" style="edgeStyle=orthogonalEdgeStyle;shape=connector;rounded=0;orthogonalLoop=1;jettySize=auto;html=1;exitX=0.5;exitY=1;exitDx=0;exitDy=0;entryX=0.5;entryY=0;entryDx=0;entryDy=0;labelBackgroundColor=default;strokeColor=default;strokeWidth=2;align=center;verticalAlign=middle;fontFamily=Cascadia Mono;fontSize=12;fontColor=default;endArrow=none;endFill=0;" edge="1" parent="1" source="G_j7bIVwT-zga_MA3Yqq-14" target="G_j7bIVwT-zga_MA3Yqq-21">
          <mxGeometry relative="1" as="geometry" />
        </mxCell>
        <mxCell id="G_j7bIVwT-zga_MA3Yqq-14" value="j = 0; j &amp;lt; sideLength; j++" style="shape=loopLimit;whiteSpace=wrap;html=1;rounded=0;strokeColor=default;strokeWidth=2;align=center;verticalAlign=middle;fontFamily=Cascadia Mono;fontSize=12;fontColor=default;fillColor=default;arcSize=0;size=20;" vertex="1" parent="1">
          <mxGeometry x="380" y="590" width="310" height="60" as="geometry" />
        </mxCell>
        <mxCell id="G_j7bIVwT-zga_MA3Yqq-33" style="edgeStyle=orthogonalEdgeStyle;shape=connector;rounded=0;orthogonalLoop=1;jettySize=auto;html=1;exitX=0.5;exitY=1;exitDx=0;exitDy=0;entryX=0.5;entryY=0;entryDx=0;entryDy=0;labelBackgroundColor=default;strokeColor=default;strokeWidth=2;align=center;verticalAlign=middle;fontFamily=Cascadia Mono;fontSize=12;fontColor=default;endArrow=none;endFill=0;" edge="1" parent="1" source="G_j7bIVwT-zga_MA3Yqq-16" target="G_j7bIVwT-zga_MA3Yqq-32">
          <mxGeometry relative="1" as="geometry" />
        </mxCell>
        <mxCell id="G_j7bIVwT-zga_MA3Yqq-16" value="i" style="shape=loopLimit;whiteSpace=wrap;html=1;rounded=1;strokeColor=default;strokeWidth=2;align=center;verticalAlign=middle;fontFamily=Cascadia Mono;fontSize=12;fontColor=default;fillColor=default;arcSize=0;flipV=1;" vertex="1" parent="1">
          <mxGeometry x="380" y="1010" width="310" height="60" as="geometry" />
        </mxCell>
        <mxCell id="G_j7bIVwT-zga_MA3Yqq-17" style="edgeStyle=orthogonalEdgeStyle;shape=connector;rounded=0;orthogonalLoop=1;jettySize=auto;html=1;exitX=1;exitY=0.5;exitDx=0;exitDy=0;entryX=0.5;entryY=0;entryDx=0;entryDy=0;labelBackgroundColor=default;strokeColor=default;strokeWidth=2;align=center;verticalAlign=middle;fontFamily=Cascadia Mono;fontSize=12;fontColor=default;endArrow=none;endFill=0;" edge="1" parent="1" source="G_j7bIVwT-zga_MA3Yqq-21" target="G_j7bIVwT-zga_MA3Yqq-23">
          <mxGeometry relative="1" as="geometry" />
        </mxCell>
        <mxCell id="G_j7bIVwT-zga_MA3Yqq-18" value="да" style="edgeLabel;html=1;align=center;verticalAlign=middle;resizable=0;points=[];fontSize=12;fontFamily=Cascadia Mono;fontColor=default;" vertex="1" connectable="0" parent="G_j7bIVwT-zga_MA3Yqq-17">
          <mxGeometry x="-0.39" y="-1" relative="1" as="geometry">
            <mxPoint as="offset" />
          </mxGeometry>
        </mxCell>
        <mxCell id="G_j7bIVwT-zga_MA3Yqq-19" style="edgeStyle=orthogonalEdgeStyle;shape=connector;rounded=0;orthogonalLoop=1;jettySize=auto;html=1;exitX=0;exitY=0.5;exitDx=0;exitDy=0;entryX=0.5;entryY=0;entryDx=0;entryDy=0;labelBackgroundColor=default;strokeColor=default;strokeWidth=2;align=center;verticalAlign=middle;fontFamily=Cascadia Mono;fontSize=12;fontColor=default;endArrow=none;endFill=0;" edge="1" parent="1" source="G_j7bIVwT-zga_MA3Yqq-21">
          <mxGeometry relative="1" as="geometry">
            <Array as="points">
              <mxPoint x="310" y="730" />
              <mxPoint x="310" y="890" />
              <mxPoint x="535" y="890" />
            </Array>
            <mxPoint x="535" y="910" as="targetPoint" />
          </mxGeometry>
        </mxCell>
        <mxCell id="G_j7bIVwT-zga_MA3Yqq-20" value="нет" style="edgeLabel;html=1;align=center;verticalAlign=middle;resizable=0;points=[];fontSize=12;fontFamily=Cascadia Mono;fontColor=default;" vertex="1" connectable="0" parent="G_j7bIVwT-zga_MA3Yqq-19">
          <mxGeometry x="-0.8484" y="5" relative="1" as="geometry">
            <mxPoint y="-5" as="offset" />
          </mxGeometry>
        </mxCell>
        <mxCell id="G_j7bIVwT-zga_MA3Yqq-21" value="matrix[i][j] &amp;gt; threshold" style="rhombus;whiteSpace=wrap;html=1;rounded=0;strokeColor=default;strokeWidth=2;align=center;verticalAlign=middle;fontFamily=Cascadia Mono;fontSize=12;fontColor=default;fillColor=default;arcSize=0;" vertex="1" parent="1">
          <mxGeometry x="380" y="690" width="310" height="80" as="geometry" />
        </mxCell>
        <mxCell id="G_j7bIVwT-zga_MA3Yqq-22" style="edgeStyle=orthogonalEdgeStyle;shape=connector;rounded=0;orthogonalLoop=1;jettySize=auto;html=1;exitX=0.5;exitY=1;exitDx=0;exitDy=0;entryX=0.5;entryY=0;entryDx=0;entryDy=0;labelBackgroundColor=default;strokeColor=default;strokeWidth=2;align=center;verticalAlign=middle;fontFamily=Cascadia Mono;fontSize=12;fontColor=default;endArrow=none;endFill=0;" edge="1" parent="1" source="G_j7bIVwT-zga_MA3Yqq-23">
          <mxGeometry relative="1" as="geometry">
            <mxPoint x="535" y="910" as="targetPoint" />
          </mxGeometry>
        </mxCell>
        <mxCell id="G_j7bIVwT-zga_MA3Yqq-23" value="arr[arrayLength++] = matrix[i][j]" style="rounded=0;whiteSpace=wrap;html=1;strokeColor=default;strokeWidth=2;align=center;verticalAlign=middle;fontFamily=Cascadia Mono;fontSize=12;fontColor=default;fillColor=default;" vertex="1" parent="1">
          <mxGeometry x="690" y="810" width="280" height="60" as="geometry" />
        </mxCell>
        <mxCell id="G_j7bIVwT-zga_MA3Yqq-31" value="&lt;font face=&quot;Cascadia Mono&quot;&gt;Конец&lt;/font&gt;" style="rounded=1;whiteSpace=wrap;html=1;arcSize=50;strokeWidth=2;" vertex="1" parent="1">
          <mxGeometry x="380" y="1210" width="310" height="70" as="geometry" />
        </mxCell>
        <mxCell id="G_j7bIVwT-zga_MA3Yqq-34" style="edgeStyle=orthogonalEdgeStyle;shape=connector;rounded=0;orthogonalLoop=1;jettySize=auto;html=1;exitX=0.5;exitY=1;exitDx=0;exitDy=0;entryX=0.5;entryY=0;entryDx=0;entryDy=0;labelBackgroundColor=default;strokeColor=default;strokeWidth=2;align=center;verticalAlign=middle;fontFamily=Cascadia Mono;fontSize=12;fontColor=default;endArrow=none;endFill=0;" edge="1" parent="1" source="G_j7bIVwT-zga_MA3Yqq-32" target="G_j7bIVwT-zga_MA3Yqq-31">
          <mxGeometry relative="1" as="geometry" />
        </mxCell>
        <mxCell id="G_j7bIVwT-zga_MA3Yqq-32" value="CreateArrayAboveThreshold =&amp;nbsp;arr" style="rounded=0;whiteSpace=wrap;html=1;strokeColor=default;strokeWidth=2;align=center;verticalAlign=middle;fontFamily=Cascadia Mono;fontSize=12;fontColor=default;fillColor=default;" vertex="1" parent="1">
          <mxGeometry x="380" y="1110" width="310" height="60" as="geometry" />
        </mxCell>
      </root>
    </mxGraphModel>
  </diagram>
  <diagram name="Событийная" id="0OBAeKYDmpCLsDRgu9tI">
    <mxGraphModel dx="1371" dy="884" grid="1" gridSize="10" guides="1" tooltips="1" connect="1" arrows="1" fold="1" page="1" pageScale="1" pageWidth="1600" pageHeight="1200" math="0" shadow="0">
      <root>
        <mxCell id="LgfqwrdV0chA7b1CduBd-0" />
        <mxCell id="LgfqwrdV0chA7b1CduBd-1" parent="LgfqwrdV0chA7b1CduBd-0" />
        <mxCell id="1lx8gkwl_eHs_idbSP_l-10" style="edgeStyle=orthogonalEdgeStyle;shape=connector;rounded=0;orthogonalLoop=1;jettySize=auto;html=1;exitX=0.5;exitY=1;exitDx=0;exitDy=0;labelBackgroundColor=default;strokeColor=default;strokeWidth=2;align=center;verticalAlign=middle;fontFamily=Cascadia Mono;fontSize=12;fontColor=default;endArrow=none;endFill=0;" edge="1" parent="LgfqwrdV0chA7b1CduBd-1" source="LgfqwrdV0chA7b1CduBd-3" target="1lx8gkwl_eHs_idbSP_l-0">
          <mxGeometry relative="1" as="geometry" />
        </mxCell>
        <mxCell id="LgfqwrdV0chA7b1CduBd-3" value="&lt;font face=&quot;Cascadia Mono&quot;&gt;CalculateButton_Click&lt;/font&gt;" style="rounded=1;whiteSpace=wrap;html=1;arcSize=50;strokeWidth=2;" vertex="1" parent="LgfqwrdV0chA7b1CduBd-1">
          <mxGeometry x="380" y="180" width="310" height="70" as="geometry" />
        </mxCell>
        <mxCell id="1lx8gkwl_eHs_idbSP_l-9" style="edgeStyle=orthogonalEdgeStyle;shape=connector;rounded=0;orthogonalLoop=1;jettySize=auto;html=1;exitX=0.5;exitY=1;exitDx=0;exitDy=0;entryX=0.5;entryY=0;entryDx=0;entryDy=0;labelBackgroundColor=default;strokeColor=default;strokeWidth=2;align=center;verticalAlign=middle;fontFamily=Cascadia Mono;fontSize=12;fontColor=default;endArrow=none;endFill=0;" edge="1" parent="LgfqwrdV0chA7b1CduBd-1" source="LgfqwrdV0chA7b1CduBd-9" target="1lx8gkwl_eHs_idbSP_l-3">
          <mxGeometry relative="1" as="geometry" />
        </mxCell>
        <mxCell id="LgfqwrdV0chA7b1CduBd-9" value="arrayLength = 0" style="rounded=0;whiteSpace=wrap;html=1;strokeColor=default;strokeWidth=2;align=center;verticalAlign=middle;fontFamily=Cascadia Mono;fontSize=12;fontColor=default;fillColor=default;" vertex="1" parent="LgfqwrdV0chA7b1CduBd-1">
          <mxGeometry x="380" y="390" width="310" height="60" as="geometry" />
        </mxCell>
        <mxCell id="LgfqwrdV0chA7b1CduBd-25" value="&lt;font face=&quot;Cascadia Mono&quot;&gt;Конец&lt;/font&gt;" style="rounded=1;whiteSpace=wrap;html=1;arcSize=50;strokeWidth=2;" vertex="1" parent="LgfqwrdV0chA7b1CduBd-1">
          <mxGeometry x="380" y="1320" width="310" height="70" as="geometry" />
        </mxCell>
        <mxCell id="LgfqwrdV0chA7b1CduBd-26" style="edgeStyle=orthogonalEdgeStyle;shape=connector;rounded=0;orthogonalLoop=1;jettySize=auto;html=1;exitX=0.5;exitY=1;exitDx=0;exitDy=0;entryX=0.5;entryY=0;entryDx=0;entryDy=0;labelBackgroundColor=default;strokeColor=default;strokeWidth=2;align=center;verticalAlign=middle;fontFamily=Cascadia Mono;fontSize=12;fontColor=default;endArrow=none;endFill=0;" edge="1" parent="LgfqwrdV0chA7b1CduBd-1" source="LgfqwrdV0chA7b1CduBd-27" target="LgfqwrdV0chA7b1CduBd-25">
          <mxGeometry relative="1" as="geometry" />
        </mxCell>
        <mxCell id="LgfqwrdV0chA7b1CduBd-27" value="delete[] arrayAboveThreshold" style="rounded=0;whiteSpace=wrap;html=1;strokeColor=default;strokeWidth=2;align=center;verticalAlign=middle;fontFamily=Cascadia Mono;fontSize=12;fontColor=default;fillColor=default;" vertex="1" parent="LgfqwrdV0chA7b1CduBd-1">
          <mxGeometry x="380" y="1220" width="310" height="60" as="geometry" />
        </mxCell>
        <mxCell id="1lx8gkwl_eHs_idbSP_l-1" style="edgeStyle=orthogonalEdgeStyle;shape=connector;rounded=0;orthogonalLoop=1;jettySize=auto;html=1;exitX=0.5;exitY=1;exitDx=0;exitDy=0;labelBackgroundColor=default;strokeColor=default;strokeWidth=2;align=center;verticalAlign=middle;fontFamily=Cascadia Mono;fontSize=12;fontColor=default;endArrow=none;endFill=0;" edge="1" parent="LgfqwrdV0chA7b1CduBd-1" source="1lx8gkwl_eHs_idbSP_l-0" target="LgfqwrdV0chA7b1CduBd-9">
          <mxGeometry relative="1" as="geometry" />
        </mxCell>
        <mxCell id="1lx8gkwl_eHs_idbSP_l-0" value="sideLength" style="shape=parallelogram;perimeter=parallelogramPerimeter;whiteSpace=wrap;html=1;fixedSize=1;rounded=0;strokeColor=default;strokeWidth=2;align=center;verticalAlign=middle;fontFamily=Cascadia Mono;fontSize=12;fontColor=default;fillColor=default;" vertex="1" parent="LgfqwrdV0chA7b1CduBd-1">
          <mxGeometry x="380" y="290" width="310" height="60" as="geometry" />
        </mxCell>
        <mxCell id="1lx8gkwl_eHs_idbSP_l-5" value="" style="edgeStyle=orthogonalEdgeStyle;shape=connector;rounded=0;orthogonalLoop=1;jettySize=auto;html=1;labelBackgroundColor=default;strokeColor=default;strokeWidth=2;align=center;verticalAlign=middle;fontFamily=Cascadia Mono;fontSize=12;fontColor=default;endArrow=none;endFill=0;" edge="1" parent="LgfqwrdV0chA7b1CduBd-1" source="1lx8gkwl_eHs_idbSP_l-3" target="1lx8gkwl_eHs_idbSP_l-4">
          <mxGeometry relative="1" as="geometry" />
        </mxCell>
        <mxCell id="1lx8gkwl_eHs_idbSP_l-3" value="matrix = Tasks2::GenerateMatrix(sideLength)" style="rounded=0;whiteSpace=wrap;html=1;strokeColor=default;strokeWidth=2;align=center;verticalAlign=middle;fontFamily=Cascadia Mono;fontSize=12;fontColor=default;fillColor=default;" vertex="1" parent="LgfqwrdV0chA7b1CduBd-1">
          <mxGeometry x="380" y="490" width="310" height="60" as="geometry" />
        </mxCell>
        <mxCell id="1lx8gkwl_eHs_idbSP_l-8" value="" style="edgeStyle=orthogonalEdgeStyle;shape=connector;rounded=0;orthogonalLoop=1;jettySize=auto;html=1;labelBackgroundColor=default;strokeColor=default;strokeWidth=2;align=center;verticalAlign=middle;fontFamily=Cascadia Mono;fontSize=12;fontColor=default;endArrow=none;endFill=0;" edge="1" parent="LgfqwrdV0chA7b1CduBd-1" source="1lx8gkwl_eHs_idbSP_l-4" target="1lx8gkwl_eHs_idbSP_l-7">
          <mxGeometry relative="1" as="geometry" />
        </mxCell>
        <mxCell id="1lx8gkwl_eHs_idbSP_l-4" value="Tasks2::OutputMatrix(SourceDataGridView, matrix, sideLength)" style="whiteSpace=wrap;html=1;fontFamily=Cascadia Mono;rounded=0;strokeWidth=2;" vertex="1" parent="LgfqwrdV0chA7b1CduBd-1">
          <mxGeometry x="380" y="590" width="310" height="60" as="geometry" />
        </mxCell>
        <mxCell id="1lx8gkwl_eHs_idbSP_l-12" style="edgeStyle=orthogonalEdgeStyle;shape=connector;rounded=0;orthogonalLoop=1;jettySize=auto;html=1;exitX=0.5;exitY=1;exitDx=0;exitDy=0;labelBackgroundColor=default;strokeColor=default;strokeWidth=2;align=center;verticalAlign=middle;fontFamily=Cascadia Mono;fontSize=12;fontColor=default;endArrow=none;endFill=0;" edge="1" parent="LgfqwrdV0chA7b1CduBd-1" source="1lx8gkwl_eHs_idbSP_l-7" target="1lx8gkwl_eHs_idbSP_l-11">
          <mxGeometry relative="1" as="geometry" />
        </mxCell>
        <mxCell id="1lx8gkwl_eHs_idbSP_l-7" value="Tasks2::&lt;br&gt;EndsWith3AndWith5UnderMinorDiagonalCount&lt;br&gt;(matrix, sideLength, endsWith3Count, endsWith5UnderMinorDiagonalCount)" style="whiteSpace=wrap;html=1;fontFamily=Cascadia Mono;rounded=0;strokeWidth=2;" vertex="1" parent="LgfqwrdV0chA7b1CduBd-1">
          <mxGeometry x="380" y="690" width="310" height="60" as="geometry" />
        </mxCell>
        <mxCell id="1lx8gkwl_eHs_idbSP_l-14" style="edgeStyle=orthogonalEdgeStyle;shape=connector;rounded=0;orthogonalLoop=1;jettySize=auto;html=1;exitX=0.5;exitY=1;exitDx=0;exitDy=0;labelBackgroundColor=default;strokeColor=default;strokeWidth=2;align=center;verticalAlign=middle;fontFamily=Cascadia Mono;fontSize=12;fontColor=default;endArrow=none;endFill=0;" edge="1" parent="LgfqwrdV0chA7b1CduBd-1" source="1lx8gkwl_eHs_idbSP_l-11" target="1lx8gkwl_eHs_idbSP_l-13">
          <mxGeometry relative="1" as="geometry" />
        </mxCell>
        <mxCell id="1lx8gkwl_eHs_idbSP_l-11" value="endsWith3Count, endsWith5UnderMinorDiagonalCount" style="shape=parallelogram;perimeter=parallelogramPerimeter;whiteSpace=wrap;html=1;fixedSize=1;rounded=0;strokeColor=default;strokeWidth=2;align=center;verticalAlign=middle;fontFamily=Cascadia Mono;fontSize=12;fontColor=default;fillColor=default;" vertex="1" parent="LgfqwrdV0chA7b1CduBd-1">
          <mxGeometry x="380" y="790" width="310" height="60" as="geometry" />
        </mxCell>
        <mxCell id="1lx8gkwl_eHs_idbSP_l-16" style="edgeStyle=orthogonalEdgeStyle;shape=connector;rounded=0;orthogonalLoop=1;jettySize=auto;html=1;exitX=0.5;exitY=1;exitDx=0;exitDy=0;labelBackgroundColor=default;strokeColor=default;strokeWidth=2;align=center;verticalAlign=middle;fontFamily=Cascadia Mono;fontSize=12;fontColor=default;endArrow=none;endFill=0;" edge="1" parent="LgfqwrdV0chA7b1CduBd-1" source="1lx8gkwl_eHs_idbSP_l-13" target="1lx8gkwl_eHs_idbSP_l-15">
          <mxGeometry relative="1" as="geometry" />
        </mxCell>
        <mxCell id="1lx8gkwl_eHs_idbSP_l-13" value="arrayAboveThreshold = Tasks2::CreateArrayAboveThreshold(matrix, sideLength, endsWith3Count + endsWith5UnderMinorDiagonalCount, arrayLength)" style="whiteSpace=wrap;html=1;fontFamily=Cascadia Mono;rounded=0;strokeWidth=2;" vertex="1" parent="LgfqwrdV0chA7b1CduBd-1">
          <mxGeometry x="380" y="890" width="310" height="90" as="geometry" />
        </mxCell>
        <mxCell id="1lx8gkwl_eHs_idbSP_l-19" style="edgeStyle=orthogonalEdgeStyle;shape=connector;rounded=0;orthogonalLoop=1;jettySize=auto;html=1;exitX=0.5;exitY=1;exitDx=0;exitDy=0;entryX=0.5;entryY=0;entryDx=0;entryDy=0;labelBackgroundColor=default;strokeColor=default;strokeWidth=2;align=center;verticalAlign=middle;fontFamily=Cascadia Mono;fontSize=12;fontColor=default;endArrow=none;endFill=0;" edge="1" parent="LgfqwrdV0chA7b1CduBd-1" source="1lx8gkwl_eHs_idbSP_l-15" target="1lx8gkwl_eHs_idbSP_l-18">
          <mxGeometry relative="1" as="geometry" />
        </mxCell>
        <mxCell id="1lx8gkwl_eHs_idbSP_l-15" value="Tasks1::OutputArray(ResultArrayDataGridView, arrayAboveThreshold, arrayLength)" style="rounded=0;whiteSpace=wrap;html=1;strokeColor=default;strokeWidth=2;align=center;verticalAlign=middle;fontFamily=Cascadia Mono;fontSize=12;fontColor=default;fillColor=default;" vertex="1" parent="LgfqwrdV0chA7b1CduBd-1">
          <mxGeometry x="380" y="1020" width="310" height="60" as="geometry" />
        </mxCell>
        <mxCell id="1lx8gkwl_eHs_idbSP_l-20" style="edgeStyle=orthogonalEdgeStyle;shape=connector;rounded=0;orthogonalLoop=1;jettySize=auto;html=1;exitX=0.5;exitY=1;exitDx=0;exitDy=0;labelBackgroundColor=default;strokeColor=default;strokeWidth=2;align=center;verticalAlign=middle;fontFamily=Cascadia Mono;fontSize=12;fontColor=default;endArrow=none;endFill=0;" edge="1" parent="LgfqwrdV0chA7b1CduBd-1" source="1lx8gkwl_eHs_idbSP_l-18" target="LgfqwrdV0chA7b1CduBd-27">
          <mxGeometry relative="1" as="geometry" />
        </mxCell>
        <mxCell id="1lx8gkwl_eHs_idbSP_l-18" value="Tasks2::DeleteMatrix(matrix, sideLength)" style="rounded=0;whiteSpace=wrap;html=1;strokeColor=default;strokeWidth=2;align=center;verticalAlign=middle;fontFamily=Cascadia Mono;fontSize=12;fontColor=default;fillColor=default;" vertex="1" parent="LgfqwrdV0chA7b1CduBd-1">
          <mxGeometry x="380" y="1120" width="310" height="60" as="geometry" />
        </mxCell>
      </root>
    </mxGraphModel>
  </diagram>
  <diagram name="EndsWith3AndWith5UnderMinorDiagonalCount" id="-Ky-_Uh3gsmnDDnw9WTm">
    <mxGraphModel dx="1613" dy="1040" grid="1" gridSize="10" guides="1" tooltips="1" connect="1" arrows="1" fold="1" page="1" pageScale="1" pageWidth="1600" pageHeight="1200" math="0" shadow="0">
      <root>
        <mxCell id="0" />
        <mxCell id="1" parent="0" />
        <mxCell id="Dx3A27PK3qYm2y0LI6H_-5" style="edgeStyle=orthogonalEdgeStyle;rounded=0;orthogonalLoop=1;jettySize=auto;html=1;exitX=0.5;exitY=1;exitDx=0;exitDy=0;entryX=0.5;entryY=0;entryDx=0;entryDy=0;fontFamily=Helvetica;fontSize=12;fontColor=default;endArrow=none;endFill=0;strokeWidth=2;" edge="1" parent="1" source="Dx3A27PK3qYm2y0LI6H_-1" target="Dx3A27PK3qYm2y0LI6H_-4">
          <mxGeometry relative="1" as="geometry" />
        </mxCell>
        <mxCell id="Dx3A27PK3qYm2y0LI6H_-1" value="&lt;font face=&quot;Cascadia Mono&quot;&gt;EndsWith3AndWith5UnderMinorDiagonalCount&lt;/font&gt;" style="rounded=1;whiteSpace=wrap;html=1;arcSize=50;strokeWidth=2;" vertex="1" parent="1">
          <mxGeometry x="380" y="180" width="310" height="70" as="geometry" />
        </mxCell>
        <mxCell id="Dx3A27PK3qYm2y0LI6H_-2" value="&lt;font face=&quot;Cascadia Mono&quot;&gt;Входные параметры:&lt;br&gt;matrix — матрица&lt;br&gt;sideLength — длина стороны квадратной матрицы&lt;br&gt;&lt;br&gt;Выходные параметры:&lt;br&gt;endsWith3Count — кол-во чисел, заканчивающихся на 3&lt;br&gt;endsWith5UnderMinorDiagonalCount — кол-во чисел&lt;br&gt;ниже главной диагонали, заканчивающихся на 5&lt;br&gt;&lt;/font&gt;" style="strokeWidth=2;html=1;shape=mxgraph.flowchart.annotation_1;align=left;pointerEvents=1;rounded=1;strokeColor=default;verticalAlign=middle;fontFamily=Helvetica;fontSize=12;fontColor=default;fillColor=default;spacingLeft=30;" vertex="1" parent="1">
          <mxGeometry x="720" y="145" width="30" height="140" as="geometry" />
        </mxCell>
        <mxCell id="Dx3A27PK3qYm2y0LI6H_-3" style="rounded=0;orthogonalLoop=1;jettySize=auto;html=1;exitX=1;exitY=0.5;exitDx=0;exitDy=0;entryX=0;entryY=0.5;entryDx=0;entryDy=0;entryPerimeter=0;fontFamily=Helvetica;fontSize=12;fontColor=default;dashed=1;strokeWidth=2;endArrow=none;endFill=0;dashPattern=1 2;" edge="1" parent="1" source="Dx3A27PK3qYm2y0LI6H_-1" target="Dx3A27PK3qYm2y0LI6H_-2">
          <mxGeometry relative="1" as="geometry" />
        </mxCell>
        <mxCell id="Dx3A27PK3qYm2y0LI6H_-7" style="edgeStyle=orthogonalEdgeStyle;shape=connector;rounded=0;orthogonalLoop=1;jettySize=auto;html=1;exitX=0.5;exitY=1;exitDx=0;exitDy=0;entryX=0.5;entryY=0;entryDx=0;entryDy=0;labelBackgroundColor=default;strokeColor=default;strokeWidth=2;align=center;verticalAlign=middle;fontFamily=Helvetica;fontSize=12;fontColor=default;endArrow=none;endFill=0;" edge="1" parent="1" source="Dx3A27PK3qYm2y0LI6H_-4" target="Dx3A27PK3qYm2y0LI6H_-6">
          <mxGeometry relative="1" as="geometry" />
        </mxCell>
        <mxCell id="Dx3A27PK3qYm2y0LI6H_-4" value="endsWith3Count = 0" style="rounded=0;whiteSpace=wrap;html=1;strokeColor=default;strokeWidth=2;align=center;verticalAlign=middle;fontFamily=Cascadia Mono;fontSize=12;fontColor=default;fillColor=default;" vertex="1" parent="1">
          <mxGeometry x="380" y="290" width="310" height="60" as="geometry" />
        </mxCell>
        <mxCell id="Dx3A27PK3qYm2y0LI6H_-11" style="edgeStyle=orthogonalEdgeStyle;shape=connector;rounded=0;orthogonalLoop=1;jettySize=auto;html=1;exitX=0.5;exitY=1;exitDx=0;exitDy=0;entryX=0.5;entryY=0;entryDx=0;entryDy=0;labelBackgroundColor=default;strokeColor=default;strokeWidth=2;align=center;verticalAlign=middle;fontFamily=Helvetica;fontSize=12;fontColor=default;endArrow=none;endFill=0;" edge="1" parent="1" source="Dx3A27PK3qYm2y0LI6H_-6" target="Dx3A27PK3qYm2y0LI6H_-9">
          <mxGeometry relative="1" as="geometry" />
        </mxCell>
        <mxCell id="Dx3A27PK3qYm2y0LI6H_-6" value="endsWith5UnderMinorDiagonalCount = 0" style="rounded=0;whiteSpace=wrap;html=1;strokeColor=default;strokeWidth=2;align=center;verticalAlign=middle;fontFamily=Cascadia Mono;fontSize=12;fontColor=default;fillColor=default;" vertex="1" parent="1">
          <mxGeometry x="380" y="390" width="310" height="60" as="geometry" />
        </mxCell>
        <mxCell id="Dx3A27PK3qYm2y0LI6H_-15" style="edgeStyle=orthogonalEdgeStyle;shape=connector;rounded=0;orthogonalLoop=1;jettySize=auto;html=1;exitX=0.5;exitY=1;exitDx=0;exitDy=0;entryX=0.5;entryY=0;entryDx=0;entryDy=0;labelBackgroundColor=default;strokeColor=default;strokeWidth=2;align=center;verticalAlign=middle;fontFamily=Cascadia Mono;fontSize=12;fontColor=default;endArrow=none;endFill=0;" edge="1" parent="1" source="Dx3A27PK3qYm2y0LI6H_-9" target="Dx3A27PK3qYm2y0LI6H_-12">
          <mxGeometry relative="1" as="geometry" />
        </mxCell>
        <mxCell id="Dx3A27PK3qYm2y0LI6H_-9" value="i = 0; i &amp;lt; sideLength; i++" style="shape=loopLimit;whiteSpace=wrap;html=1;rounded=0;strokeColor=default;strokeWidth=2;align=center;verticalAlign=middle;fontFamily=Cascadia Mono;fontSize=12;fontColor=default;fillColor=default;arcSize=0;" vertex="1" parent="1">
          <mxGeometry x="380" y="490" width="310" height="60" as="geometry" />
        </mxCell>
        <mxCell id="Dx3A27PK3qYm2y0LI6H_-14" style="edgeStyle=orthogonalEdgeStyle;shape=connector;rounded=0;orthogonalLoop=1;jettySize=auto;html=1;exitX=0.5;exitY=1;exitDx=0;exitDy=0;entryX=0.5;entryY=0;entryDx=0;entryDy=0;labelBackgroundColor=default;strokeColor=default;strokeWidth=2;align=center;verticalAlign=middle;fontFamily=Cascadia Mono;fontSize=12;fontColor=default;endArrow=none;endFill=0;" edge="1" parent="1" source="Dx3A27PK3qYm2y0LI6H_-10" target="Dx3A27PK3qYm2y0LI6H_-13">
          <mxGeometry relative="1" as="geometry" />
        </mxCell>
        <mxCell id="Dx3A27PK3qYm2y0LI6H_-10" value="j" style="shape=loopLimit;whiteSpace=wrap;html=1;rounded=1;strokeColor=default;strokeWidth=2;align=center;verticalAlign=middle;fontFamily=Cascadia Mono;fontSize=12;fontColor=default;fillColor=default;arcSize=0;flipV=1;" vertex="1" parent="1">
          <mxGeometry x="380" y="1130" width="310" height="60" as="geometry" />
        </mxCell>
        <mxCell id="Dx3A27PK3qYm2y0LI6H_-17" style="edgeStyle=orthogonalEdgeStyle;shape=connector;rounded=0;orthogonalLoop=1;jettySize=auto;html=1;exitX=0.5;exitY=1;exitDx=0;exitDy=0;entryX=0.5;entryY=0;entryDx=0;entryDy=0;labelBackgroundColor=default;strokeColor=default;strokeWidth=2;align=center;verticalAlign=middle;fontFamily=Cascadia Mono;fontSize=12;fontColor=default;endArrow=none;endFill=0;" edge="1" parent="1" source="Dx3A27PK3qYm2y0LI6H_-12" target="Dx3A27PK3qYm2y0LI6H_-16">
          <mxGeometry relative="1" as="geometry" />
        </mxCell>
        <mxCell id="Dx3A27PK3qYm2y0LI6H_-12" value="j = 0; j &amp;lt; sideLength; j++" style="shape=loopLimit;whiteSpace=wrap;html=1;rounded=0;strokeColor=default;strokeWidth=2;align=center;verticalAlign=middle;fontFamily=Cascadia Mono;fontSize=12;fontColor=default;fillColor=default;arcSize=0;size=20;" vertex="1" parent="1">
          <mxGeometry x="380" y="590" width="310" height="60" as="geometry" />
        </mxCell>
        <mxCell id="Dx3A27PK3qYm2y0LI6H_-34" style="edgeStyle=orthogonalEdgeStyle;shape=connector;rounded=0;orthogonalLoop=1;jettySize=auto;html=1;exitX=0.5;exitY=1;exitDx=0;exitDy=0;entryX=0.5;entryY=0;entryDx=0;entryDy=0;labelBackgroundColor=default;strokeColor=default;strokeWidth=2;align=center;verticalAlign=middle;fontFamily=Cascadia Mono;fontSize=12;fontColor=default;endArrow=none;endFill=0;" edge="1" parent="1" source="Dx3A27PK3qYm2y0LI6H_-13" target="Dx3A27PK3qYm2y0LI6H_-33">
          <mxGeometry relative="1" as="geometry" />
        </mxCell>
        <mxCell id="Dx3A27PK3qYm2y0LI6H_-13" value="i" style="shape=loopLimit;whiteSpace=wrap;html=1;rounded=1;strokeColor=default;strokeWidth=2;align=center;verticalAlign=middle;fontFamily=Cascadia Mono;fontSize=12;fontColor=default;fillColor=default;arcSize=0;flipV=1;" vertex="1" parent="1">
          <mxGeometry x="380" y="1230" width="310" height="60" as="geometry" />
        </mxCell>
        <mxCell id="Dx3A27PK3qYm2y0LI6H_-19" style="edgeStyle=orthogonalEdgeStyle;shape=connector;rounded=0;orthogonalLoop=1;jettySize=auto;html=1;exitX=1;exitY=0.5;exitDx=0;exitDy=0;entryX=0.5;entryY=0;entryDx=0;entryDy=0;labelBackgroundColor=default;strokeColor=default;strokeWidth=2;align=center;verticalAlign=middle;fontFamily=Cascadia Mono;fontSize=12;fontColor=default;endArrow=none;endFill=0;" edge="1" parent="1" source="Dx3A27PK3qYm2y0LI6H_-16" target="Dx3A27PK3qYm2y0LI6H_-18">
          <mxGeometry relative="1" as="geometry" />
        </mxCell>
        <mxCell id="Dx3A27PK3qYm2y0LI6H_-28" value="да" style="edgeLabel;html=1;align=center;verticalAlign=middle;resizable=0;points=[];fontSize=12;fontFamily=Cascadia Mono;fontColor=default;" vertex="1" connectable="0" parent="Dx3A27PK3qYm2y0LI6H_-19">
          <mxGeometry x="-0.39" y="-1" relative="1" as="geometry">
            <mxPoint as="offset" />
          </mxGeometry>
        </mxCell>
        <mxCell id="Dx3A27PK3qYm2y0LI6H_-26" style="edgeStyle=orthogonalEdgeStyle;shape=connector;rounded=0;orthogonalLoop=1;jettySize=auto;html=1;exitX=0;exitY=0.5;exitDx=0;exitDy=0;entryX=0.5;entryY=0;entryDx=0;entryDy=0;labelBackgroundColor=default;strokeColor=default;strokeWidth=2;align=center;verticalAlign=middle;fontFamily=Cascadia Mono;fontSize=12;fontColor=default;endArrow=none;endFill=0;" edge="1" parent="1" source="Dx3A27PK3qYm2y0LI6H_-16" target="Dx3A27PK3qYm2y0LI6H_-23">
          <mxGeometry relative="1" as="geometry">
            <Array as="points">
              <mxPoint x="310" y="730" />
              <mxPoint x="310" y="890" />
              <mxPoint x="535" y="890" />
            </Array>
          </mxGeometry>
        </mxCell>
        <mxCell id="Dx3A27PK3qYm2y0LI6H_-27" value="нет" style="edgeLabel;html=1;align=center;verticalAlign=middle;resizable=0;points=[];fontSize=12;fontFamily=Cascadia Mono;fontColor=default;" vertex="1" connectable="0" parent="Dx3A27PK3qYm2y0LI6H_-26">
          <mxGeometry x="-0.8484" y="5" relative="1" as="geometry">
            <mxPoint y="-5" as="offset" />
          </mxGeometry>
        </mxCell>
        <mxCell id="Dx3A27PK3qYm2y0LI6H_-16" value="matrix[i][j] % 10 == 3" style="rhombus;whiteSpace=wrap;html=1;rounded=0;strokeColor=default;strokeWidth=2;align=center;verticalAlign=middle;fontFamily=Cascadia Mono;fontSize=12;fontColor=default;fillColor=default;arcSize=0;" vertex="1" parent="1">
          <mxGeometry x="380" y="690" width="310" height="80" as="geometry" />
        </mxCell>
        <mxCell id="Dx3A27PK3qYm2y0LI6H_-25" style="edgeStyle=orthogonalEdgeStyle;shape=connector;rounded=0;orthogonalLoop=1;jettySize=auto;html=1;exitX=0.5;exitY=1;exitDx=0;exitDy=0;entryX=0.5;entryY=0;entryDx=0;entryDy=0;labelBackgroundColor=default;strokeColor=default;strokeWidth=2;align=center;verticalAlign=middle;fontFamily=Cascadia Mono;fontSize=12;fontColor=default;endArrow=none;endFill=0;" edge="1" parent="1" source="Dx3A27PK3qYm2y0LI6H_-18" target="Dx3A27PK3qYm2y0LI6H_-23">
          <mxGeometry relative="1" as="geometry" />
        </mxCell>
        <mxCell id="Dx3A27PK3qYm2y0LI6H_-18" value="endsWith3Count++" style="rounded=0;whiteSpace=wrap;html=1;strokeColor=default;strokeWidth=2;align=center;verticalAlign=middle;fontFamily=Cascadia Mono;fontSize=12;fontColor=default;fillColor=default;" vertex="1" parent="1">
          <mxGeometry x="690" y="810" width="280" height="60" as="geometry" />
        </mxCell>
        <mxCell id="Dx3A27PK3qYm2y0LI6H_-22" style="edgeStyle=orthogonalEdgeStyle;shape=connector;rounded=0;orthogonalLoop=1;jettySize=auto;html=1;exitX=1;exitY=0.5;exitDx=0;exitDy=0;entryX=0.5;entryY=0;entryDx=0;entryDy=0;labelBackgroundColor=default;strokeColor=default;strokeWidth=2;align=center;verticalAlign=middle;fontFamily=Cascadia Mono;fontSize=12;fontColor=default;endArrow=none;endFill=0;" edge="1" parent="1" source="Dx3A27PK3qYm2y0LI6H_-23" target="Dx3A27PK3qYm2y0LI6H_-24">
          <mxGeometry relative="1" as="geometry" />
        </mxCell>
        <mxCell id="Dx3A27PK3qYm2y0LI6H_-32" value="да" style="edgeLabel;html=1;align=center;verticalAlign=middle;resizable=0;points=[];fontSize=12;fontFamily=Cascadia Mono;fontColor=default;" vertex="1" connectable="0" parent="Dx3A27PK3qYm2y0LI6H_-22">
          <mxGeometry x="-0.3818" relative="1" as="geometry">
            <mxPoint as="offset" />
          </mxGeometry>
        </mxCell>
        <mxCell id="Dx3A27PK3qYm2y0LI6H_-29" style="edgeStyle=orthogonalEdgeStyle;shape=connector;rounded=0;orthogonalLoop=1;jettySize=auto;html=1;exitX=0;exitY=0.5;exitDx=0;exitDy=0;entryX=0.5;entryY=0;entryDx=0;entryDy=0;labelBackgroundColor=default;strokeColor=default;strokeWidth=2;align=center;verticalAlign=middle;fontFamily=Cascadia Mono;fontSize=12;fontColor=default;endArrow=none;endFill=0;" edge="1" parent="1" source="Dx3A27PK3qYm2y0LI6H_-23" target="Dx3A27PK3qYm2y0LI6H_-10">
          <mxGeometry relative="1" as="geometry">
            <Array as="points">
              <mxPoint x="310" y="950" />
              <mxPoint x="310" y="1110" />
              <mxPoint x="535" y="1110" />
            </Array>
          </mxGeometry>
        </mxCell>
        <mxCell id="Dx3A27PK3qYm2y0LI6H_-31" value="нет" style="edgeLabel;html=1;align=center;verticalAlign=middle;resizable=0;points=[];fontSize=12;fontFamily=Cascadia Mono;fontColor=default;" vertex="1" connectable="0" parent="Dx3A27PK3qYm2y0LI6H_-29">
          <mxGeometry x="-0.8568" y="-2" relative="1" as="geometry">
            <mxPoint as="offset" />
          </mxGeometry>
        </mxCell>
        <mxCell id="Dx3A27PK3qYm2y0LI6H_-23" value="matrix[i][j] % 10 == 3" style="rhombus;whiteSpace=wrap;html=1;rounded=0;strokeColor=default;strokeWidth=2;align=center;verticalAlign=middle;fontFamily=Cascadia Mono;fontSize=12;fontColor=default;fillColor=default;arcSize=0;" vertex="1" parent="1">
          <mxGeometry x="380" y="910" width="310" height="80" as="geometry" />
        </mxCell>
        <mxCell id="Dx3A27PK3qYm2y0LI6H_-30" style="edgeStyle=orthogonalEdgeStyle;shape=connector;rounded=0;orthogonalLoop=1;jettySize=auto;html=1;exitX=0.5;exitY=1;exitDx=0;exitDy=0;entryX=0.5;entryY=0;entryDx=0;entryDy=0;labelBackgroundColor=default;strokeColor=default;strokeWidth=2;align=center;verticalAlign=middle;fontFamily=Cascadia Mono;fontSize=12;fontColor=default;endArrow=none;endFill=0;" edge="1" parent="1" source="Dx3A27PK3qYm2y0LI6H_-24" target="Dx3A27PK3qYm2y0LI6H_-10">
          <mxGeometry relative="1" as="geometry" />
        </mxCell>
        <mxCell id="Dx3A27PK3qYm2y0LI6H_-24" value="endsWith5UnderMinorDiagonalCount++" style="rounded=0;whiteSpace=wrap;html=1;strokeColor=default;strokeWidth=2;align=center;verticalAlign=middle;fontFamily=Cascadia Mono;fontSize=12;fontColor=default;fillColor=default;" vertex="1" parent="1">
          <mxGeometry x="690" y="1030" width="280" height="60" as="geometry" />
        </mxCell>
        <mxCell id="Dx3A27PK3qYm2y0LI6H_-33" value="&lt;font face=&quot;Cascadia Mono&quot;&gt;Конец&lt;/font&gt;" style="rounded=1;whiteSpace=wrap;html=1;arcSize=50;strokeWidth=2;" vertex="1" parent="1">
          <mxGeometry x="380" y="1330" width="310" height="70" as="geometry" />
        </mxCell>
      </root>
    </mxGraphModel>
  </diagram>
  <diagram name="CreateArrayAboveThreshold" id="IfxFtiBO7sC6-Yfy2_kH">
    <mxGraphModel dx="1371" dy="884" grid="1" gridSize="10" guides="1" tooltips="1" connect="1" arrows="1" fold="1" page="1" pageScale="1" pageWidth="1600" pageHeight="1200" math="0" shadow="0">
      <root>
        <mxCell id="0" />
        <mxCell id="1" parent="0" />
        <mxCell id="G_j7bIVwT-zga_MA3Yqq-1" style="edgeStyle=orthogonalEdgeStyle;rounded=0;orthogonalLoop=1;jettySize=auto;html=1;exitX=0.5;exitY=1;exitDx=0;exitDy=0;entryX=0.5;entryY=0;entryDx=0;entryDy=0;fontFamily=Helvetica;fontSize=12;fontColor=default;endArrow=none;endFill=0;strokeWidth=2;" edge="1" parent="1" source="G_j7bIVwT-zga_MA3Yqq-2" target="G_j7bIVwT-zga_MA3Yqq-6">
          <mxGeometry relative="1" as="geometry" />
        </mxCell>
        <mxCell id="G_j7bIVwT-zga_MA3Yqq-2" value="&lt;font face=&quot;Cascadia Mono&quot;&gt;CreateArrayAboveThreshold&lt;/font&gt;" style="rounded=1;whiteSpace=wrap;html=1;arcSize=50;strokeWidth=2;" vertex="1" parent="1">
          <mxGeometry x="380" y="180" width="310" height="70" as="geometry" />
        </mxCell>
        <mxCell id="G_j7bIVwT-zga_MA3Yqq-3" value="&lt;font face=&quot;Cascadia Mono&quot;&gt;Входные параметры:&lt;br&gt;matrix — матрица&lt;br&gt;sideLength — длина стороны квадратной матрицы&lt;br&gt;threshold — граница, выше к-рой будут&lt;br&gt;выбираться числа&lt;br&gt;&lt;br&gt;Выходные параметры:&lt;br&gt;arrayLength — длина массива&lt;br&gt;&lt;br&gt;Возвращает:&lt;br&gt;новый массив&lt;br&gt;&lt;/font&gt;" style="strokeWidth=2;html=1;shape=mxgraph.flowchart.annotation_1;align=left;pointerEvents=1;rounded=1;strokeColor=default;verticalAlign=middle;fontFamily=Helvetica;fontSize=12;fontColor=default;fillColor=default;spacingLeft=30;" vertex="1" parent="1">
          <mxGeometry x="720" y="145" width="30" height="185" as="geometry" />
        </mxCell>
        <mxCell id="G_j7bIVwT-zga_MA3Yqq-4" style="rounded=0;orthogonalLoop=1;jettySize=auto;html=1;exitX=1;exitY=0.5;exitDx=0;exitDy=0;entryX=0;entryY=0.5;entryDx=0;entryDy=0;entryPerimeter=0;fontFamily=Helvetica;fontSize=12;fontColor=default;dashed=1;strokeWidth=2;endArrow=none;endFill=0;dashPattern=1 2;" edge="1" parent="1" source="G_j7bIVwT-zga_MA3Yqq-2" target="G_j7bIVwT-zga_MA3Yqq-3">
          <mxGeometry relative="1" as="geometry" />
        </mxCell>
        <mxCell id="G_j7bIVwT-zga_MA3Yqq-5" style="edgeStyle=orthogonalEdgeStyle;shape=connector;rounded=0;orthogonalLoop=1;jettySize=auto;html=1;exitX=0.5;exitY=1;exitDx=0;exitDy=0;entryX=0.5;entryY=0;entryDx=0;entryDy=0;labelBackgroundColor=default;strokeColor=default;strokeWidth=2;align=center;verticalAlign=middle;fontFamily=Helvetica;fontSize=12;fontColor=default;endArrow=none;endFill=0;" edge="1" parent="1" source="G_j7bIVwT-zga_MA3Yqq-6" target="G_j7bIVwT-zga_MA3Yqq-8">
          <mxGeometry relative="1" as="geometry" />
        </mxCell>
        <mxCell id="G_j7bIVwT-zga_MA3Yqq-6" value="arr = new int[sideLength * sideLength]" style="rounded=0;whiteSpace=wrap;html=1;strokeColor=default;strokeWidth=2;align=center;verticalAlign=middle;fontFamily=Cascadia Mono;fontSize=12;fontColor=default;fillColor=default;" vertex="1" parent="1">
          <mxGeometry x="380" y="290" width="310" height="60" as="geometry" />
        </mxCell>
        <mxCell id="G_j7bIVwT-zga_MA3Yqq-7" style="edgeStyle=orthogonalEdgeStyle;shape=connector;rounded=0;orthogonalLoop=1;jettySize=auto;html=1;exitX=0.5;exitY=1;exitDx=0;exitDy=0;entryX=0.5;entryY=0;entryDx=0;entryDy=0;labelBackgroundColor=default;strokeColor=default;strokeWidth=2;align=center;verticalAlign=middle;fontFamily=Helvetica;fontSize=12;fontColor=default;endArrow=none;endFill=0;" edge="1" parent="1" source="G_j7bIVwT-zga_MA3Yqq-8" target="G_j7bIVwT-zga_MA3Yqq-10">
          <mxGeometry relative="1" as="geometry" />
        </mxCell>
        <mxCell id="G_j7bIVwT-zga_MA3Yqq-8" value="arrayLength = 0" style="rounded=0;whiteSpace=wrap;html=1;strokeColor=default;strokeWidth=2;align=center;verticalAlign=middle;fontFamily=Cascadia Mono;fontSize=12;fontColor=default;fillColor=default;" vertex="1" parent="1">
          <mxGeometry x="380" y="390" width="310" height="60" as="geometry" />
        </mxCell>
        <mxCell id="G_j7bIVwT-zga_MA3Yqq-9" style="edgeStyle=orthogonalEdgeStyle;shape=connector;rounded=0;orthogonalLoop=1;jettySize=auto;html=1;exitX=0.5;exitY=1;exitDx=0;exitDy=0;entryX=0.5;entryY=0;entryDx=0;entryDy=0;labelBackgroundColor=default;strokeColor=default;strokeWidth=2;align=center;verticalAlign=middle;fontFamily=Cascadia Mono;fontSize=12;fontColor=default;endArrow=none;endFill=0;" edge="1" parent="1" source="G_j7bIVwT-zga_MA3Yqq-10" target="G_j7bIVwT-zga_MA3Yqq-14">
          <mxGeometry relative="1" as="geometry" />
        </mxCell>
        <mxCell id="G_j7bIVwT-zga_MA3Yqq-10" value="i = 0; i &amp;lt; sideLength; i++" style="shape=loopLimit;whiteSpace=wrap;html=1;rounded=0;strokeColor=default;strokeWidth=2;align=center;verticalAlign=middle;fontFamily=Cascadia Mono;fontSize=12;fontColor=default;fillColor=default;arcSize=0;" vertex="1" parent="1">
          <mxGeometry x="380" y="490" width="310" height="60" as="geometry" />
        </mxCell>
        <mxCell id="G_j7bIVwT-zga_MA3Yqq-11" style="edgeStyle=orthogonalEdgeStyle;shape=connector;rounded=0;orthogonalLoop=1;jettySize=auto;html=1;exitX=0.5;exitY=1;exitDx=0;exitDy=0;entryX=0.5;entryY=0;entryDx=0;entryDy=0;labelBackgroundColor=default;strokeColor=default;strokeWidth=2;align=center;verticalAlign=middle;fontFamily=Cascadia Mono;fontSize=12;fontColor=default;endArrow=none;endFill=0;" edge="1" parent="1" source="G_j7bIVwT-zga_MA3Yqq-12" target="G_j7bIVwT-zga_MA3Yqq-16">
          <mxGeometry relative="1" as="geometry" />
        </mxCell>
        <mxCell id="G_j7bIVwT-zga_MA3Yqq-12" value="j" style="shape=loopLimit;whiteSpace=wrap;html=1;rounded=1;strokeColor=default;strokeWidth=2;align=center;verticalAlign=middle;fontFamily=Cascadia Mono;fontSize=12;fontColor=default;fillColor=default;arcSize=0;flipV=1;" vertex="1" parent="1">
          <mxGeometry x="380" y="910" width="310" height="60" as="geometry" />
        </mxCell>
        <mxCell id="G_j7bIVwT-zga_MA3Yqq-13" style="edgeStyle=orthogonalEdgeStyle;shape=connector;rounded=0;orthogonalLoop=1;jettySize=auto;html=1;exitX=0.5;exitY=1;exitDx=0;exitDy=0;entryX=0.5;entryY=0;entryDx=0;entryDy=0;labelBackgroundColor=default;strokeColor=default;strokeWidth=2;align=center;verticalAlign=middle;fontFamily=Cascadia Mono;fontSize=12;fontColor=default;endArrow=none;endFill=0;" edge="1" parent="1" source="G_j7bIVwT-zga_MA3Yqq-14" target="G_j7bIVwT-zga_MA3Yqq-21">
          <mxGeometry relative="1" as="geometry" />
        </mxCell>
        <mxCell id="G_j7bIVwT-zga_MA3Yqq-14" value="j = 0; j &amp;lt; sideLength; j++" style="shape=loopLimit;whiteSpace=wrap;html=1;rounded=0;strokeColor=default;strokeWidth=2;align=center;verticalAlign=middle;fontFamily=Cascadia Mono;fontSize=12;fontColor=default;fillColor=default;arcSize=0;size=20;" vertex="1" parent="1">
          <mxGeometry x="380" y="590" width="310" height="60" as="geometry" />
        </mxCell>
        <mxCell id="G_j7bIVwT-zga_MA3Yqq-33" style="edgeStyle=orthogonalEdgeStyle;shape=connector;rounded=0;orthogonalLoop=1;jettySize=auto;html=1;exitX=0.5;exitY=1;exitDx=0;exitDy=0;entryX=0.5;entryY=0;entryDx=0;entryDy=0;labelBackgroundColor=default;strokeColor=default;strokeWidth=2;align=center;verticalAlign=middle;fontFamily=Cascadia Mono;fontSize=12;fontColor=default;endArrow=none;endFill=0;" edge="1" parent="1" source="G_j7bIVwT-zga_MA3Yqq-16" target="G_j7bIVwT-zga_MA3Yqq-32">
          <mxGeometry relative="1" as="geometry" />
        </mxCell>
        <mxCell id="G_j7bIVwT-zga_MA3Yqq-16" value="i" style="shape=loopLimit;whiteSpace=wrap;html=1;rounded=1;strokeColor=default;strokeWidth=2;align=center;verticalAlign=middle;fontFamily=Cascadia Mono;fontSize=12;fontColor=default;fillColor=default;arcSize=0;flipV=1;" vertex="1" parent="1">
          <mxGeometry x="380" y="1010" width="310" height="60" as="geometry" />
        </mxCell>
        <mxCell id="G_j7bIVwT-zga_MA3Yqq-17" style="edgeStyle=orthogonalEdgeStyle;shape=connector;rounded=0;orthogonalLoop=1;jettySize=auto;html=1;exitX=1;exitY=0.5;exitDx=0;exitDy=0;entryX=0.5;entryY=0;entryDx=0;entryDy=0;labelBackgroundColor=default;strokeColor=default;strokeWidth=2;align=center;verticalAlign=middle;fontFamily=Cascadia Mono;fontSize=12;fontColor=default;endArrow=none;endFill=0;" edge="1" parent="1" source="G_j7bIVwT-zga_MA3Yqq-21" target="G_j7bIVwT-zga_MA3Yqq-23">
          <mxGeometry relative="1" as="geometry" />
        </mxCell>
        <mxCell id="G_j7bIVwT-zga_MA3Yqq-18" value="да" style="edgeLabel;html=1;align=center;verticalAlign=middle;resizable=0;points=[];fontSize=12;fontFamily=Cascadia Mono;fontColor=default;" vertex="1" connectable="0" parent="G_j7bIVwT-zga_MA3Yqq-17">
          <mxGeometry x="-0.39" y="-1" relative="1" as="geometry">
            <mxPoint as="offset" />
          </mxGeometry>
        </mxCell>
        <mxCell id="G_j7bIVwT-zga_MA3Yqq-19" style="edgeStyle=orthogonalEdgeStyle;shape=connector;rounded=0;orthogonalLoop=1;jettySize=auto;html=1;exitX=0;exitY=0.5;exitDx=0;exitDy=0;entryX=0.5;entryY=0;entryDx=0;entryDy=0;labelBackgroundColor=default;strokeColor=default;strokeWidth=2;align=center;verticalAlign=middle;fontFamily=Cascadia Mono;fontSize=12;fontColor=default;endArrow=none;endFill=0;" edge="1" parent="1" source="G_j7bIVwT-zga_MA3Yqq-21">
          <mxGeometry relative="1" as="geometry">
            <Array as="points">
              <mxPoint x="310" y="730" />
              <mxPoint x="310" y="890" />
              <mxPoint x="535" y="890" />
            </Array>
            <mxPoint x="535" y="910" as="targetPoint" />
          </mxGeometry>
        </mxCell>
        <mxCell id="G_j7bIVwT-zga_MA3Yqq-20" value="нет" style="edgeLabel;html=1;align=center;verticalAlign=middle;resizable=0;points=[];fontSize=12;fontFamily=Cascadia Mono;fontColor=default;" vertex="1" connectable="0" parent="G_j7bIVwT-zga_MA3Yqq-19">
          <mxGeometry x="-0.8484" y="5" relative="1" as="geometry">
            <mxPoint y="-5" as="offset" />
          </mxGeometry>
        </mxCell>
        <mxCell id="G_j7bIVwT-zga_MA3Yqq-21" value="matrix[i][j] &amp;gt; threshold" style="rhombus;whiteSpace=wrap;html=1;rounded=0;strokeColor=default;strokeWidth=2;align=center;verticalAlign=middle;fontFamily=Cascadia Mono;fontSize=12;fontColor=default;fillColor=default;arcSize=0;" vertex="1" parent="1">
          <mxGeometry x="380" y="690" width="310" height="80" as="geometry" />
        </mxCell>
        <mxCell id="G_j7bIVwT-zga_MA3Yqq-22" style="edgeStyle=orthogonalEdgeStyle;shape=connector;rounded=0;orthogonalLoop=1;jettySize=auto;html=1;exitX=0.5;exitY=1;exitDx=0;exitDy=0;entryX=0.5;entryY=0;entryDx=0;entryDy=0;labelBackgroundColor=default;strokeColor=default;strokeWidth=2;align=center;verticalAlign=middle;fontFamily=Cascadia Mono;fontSize=12;fontColor=default;endArrow=none;endFill=0;" edge="1" parent="1" source="G_j7bIVwT-zga_MA3Yqq-23">
          <mxGeometry relative="1" as="geometry">
            <mxPoint x="535" y="910" as="targetPoint" />
          </mxGeometry>
        </mxCell>
        <mxCell id="G_j7bIVwT-zga_MA3Yqq-23" value="arr[arrayLength++] = matrix[i][j]" style="rounded=0;whiteSpace=wrap;html=1;strokeColor=default;strokeWidth=2;align=center;verticalAlign=middle;fontFamily=Cascadia Mono;fontSize=12;fontColor=default;fillColor=default;" vertex="1" parent="1">
          <mxGeometry x="690" y="810" width="280" height="60" as="geometry" />
        </mxCell>
        <mxCell id="G_j7bIVwT-zga_MA3Yqq-31" value="&lt;font face=&quot;Cascadia Mono&quot;&gt;Конец&lt;/font&gt;" style="rounded=1;whiteSpace=wrap;html=1;arcSize=50;strokeWidth=2;" vertex="1" parent="1">
          <mxGeometry x="380" y="1210" width="310" height="70" as="geometry" />
        </mxCell>
        <mxCell id="G_j7bIVwT-zga_MA3Yqq-34" style="edgeStyle=orthogonalEdgeStyle;shape=connector;rounded=0;orthogonalLoop=1;jettySize=auto;html=1;exitX=0.5;exitY=1;exitDx=0;exitDy=0;entryX=0.5;entryY=0;entryDx=0;entryDy=0;labelBackgroundColor=default;strokeColor=default;strokeWidth=2;align=center;verticalAlign=middle;fontFamily=Cascadia Mono;fontSize=12;fontColor=default;endArrow=none;endFill=0;" edge="1" parent="1" source="G_j7bIVwT-zga_MA3Yqq-32" target="G_j7bIVwT-zga_MA3Yqq-31">
          <mxGeometry relative="1" as="geometry" />
        </mxCell>
        <mxCell id="G_j7bIVwT-zga_MA3Yqq-32" value="CreateArrayAboveThreshold =&amp;nbsp;arr" style="rounded=0;whiteSpace=wrap;html=1;strokeColor=default;strokeWidth=2;align=center;verticalAlign=middle;fontFamily=Cascadia Mono;fontSize=12;fontColor=default;fillColor=default;" vertex="1" parent="1">
          <mxGeometry x="380" y="1110" width="310" height="60" as="geometry" />
        </mxCell>
      </root>
    </mxGraphModel>
  </diagram>
  <diagram name="Событийная" id="lSrUg7e1JmxFhf10G2q-">
    <mxGraphModel dx="1371" dy="884" grid="1" gridSize="10" guides="1" tooltips="1" connect="1" arrows="1" fold="1" page="1" pageScale="1" pageWidth="1600" pageHeight="1200" math="0" shadow="0">
      <root>
        <mxCell id="LgfqwrdV0chA7b1CduBd-0" />
        <mxCell id="LgfqwrdV0chA7b1CduBd-1" parent="LgfqwrdV0chA7b1CduBd-0" />
        <mxCell id="1lx8gkwl_eHs_idbSP_l-10" style="edgeStyle=orthogonalEdgeStyle;shape=connector;rounded=0;orthogonalLoop=1;jettySize=auto;html=1;exitX=0.5;exitY=1;exitDx=0;exitDy=0;labelBackgroundColor=default;strokeColor=default;strokeWidth=2;align=center;verticalAlign=middle;fontFamily=Cascadia Mono;fontSize=12;fontColor=default;endArrow=none;endFill=0;" edge="1" parent="LgfqwrdV0chA7b1CduBd-1" source="LgfqwrdV0chA7b1CduBd-3" target="1lx8gkwl_eHs_idbSP_l-0">
          <mxGeometry relative="1" as="geometry" />
        </mxCell>
        <mxCell id="LgfqwrdV0chA7b1CduBd-3" value="&lt;font face=&quot;Cascadia Mono&quot;&gt;CalculateButton_Click&lt;/font&gt;" style="rounded=1;whiteSpace=wrap;html=1;arcSize=50;strokeWidth=2;" vertex="1" parent="LgfqwrdV0chA7b1CduBd-1">
          <mxGeometry x="380" y="180" width="310" height="70" as="geometry" />
        </mxCell>
        <mxCell id="1lx8gkwl_eHs_idbSP_l-9" style="edgeStyle=orthogonalEdgeStyle;shape=connector;rounded=0;orthogonalLoop=1;jettySize=auto;html=1;exitX=0.5;exitY=1;exitDx=0;exitDy=0;entryX=0.5;entryY=0;entryDx=0;entryDy=0;labelBackgroundColor=default;strokeColor=default;strokeWidth=2;align=center;verticalAlign=middle;fontFamily=Cascadia Mono;fontSize=12;fontColor=default;endArrow=none;endFill=0;" edge="1" parent="LgfqwrdV0chA7b1CduBd-1" source="LgfqwrdV0chA7b1CduBd-9" target="1lx8gkwl_eHs_idbSP_l-3">
          <mxGeometry relative="1" as="geometry" />
        </mxCell>
        <mxCell id="LgfqwrdV0chA7b1CduBd-9" value="arrayLength = 0" style="rounded=0;whiteSpace=wrap;html=1;strokeColor=default;strokeWidth=2;align=center;verticalAlign=middle;fontFamily=Cascadia Mono;fontSize=12;fontColor=default;fillColor=default;" vertex="1" parent="LgfqwrdV0chA7b1CduBd-1">
          <mxGeometry x="380" y="390" width="310" height="60" as="geometry" />
        </mxCell>
        <mxCell id="LgfqwrdV0chA7b1CduBd-25" value="&lt;font face=&quot;Cascadia Mono&quot;&gt;Конец&lt;/font&gt;" style="rounded=1;whiteSpace=wrap;html=1;arcSize=50;strokeWidth=2;" vertex="1" parent="LgfqwrdV0chA7b1CduBd-1">
          <mxGeometry x="380" y="1320" width="310" height="70" as="geometry" />
        </mxCell>
        <mxCell id="LgfqwrdV0chA7b1CduBd-26" style="edgeStyle=orthogonalEdgeStyle;shape=connector;rounded=0;orthogonalLoop=1;jettySize=auto;html=1;exitX=0.5;exitY=1;exitDx=0;exitDy=0;entryX=0.5;entryY=0;entryDx=0;entryDy=0;labelBackgroundColor=default;strokeColor=default;strokeWidth=2;align=center;verticalAlign=middle;fontFamily=Cascadia Mono;fontSize=12;fontColor=default;endArrow=none;endFill=0;" edge="1" parent="LgfqwrdV0chA7b1CduBd-1" source="LgfqwrdV0chA7b1CduBd-27" target="LgfqwrdV0chA7b1CduBd-25">
          <mxGeometry relative="1" as="geometry" />
        </mxCell>
        <mxCell id="LgfqwrdV0chA7b1CduBd-27" value="delete[] arrayAboveThreshold" style="rounded=0;whiteSpace=wrap;html=1;strokeColor=default;strokeWidth=2;align=center;verticalAlign=middle;fontFamily=Cascadia Mono;fontSize=12;fontColor=default;fillColor=default;" vertex="1" parent="LgfqwrdV0chA7b1CduBd-1">
          <mxGeometry x="380" y="1220" width="310" height="60" as="geometry" />
        </mxCell>
        <mxCell id="1lx8gkwl_eHs_idbSP_l-1" style="edgeStyle=orthogonalEdgeStyle;shape=connector;rounded=0;orthogonalLoop=1;jettySize=auto;html=1;exitX=0.5;exitY=1;exitDx=0;exitDy=0;labelBackgroundColor=default;strokeColor=default;strokeWidth=2;align=center;verticalAlign=middle;fontFamily=Cascadia Mono;fontSize=12;fontColor=default;endArrow=none;endFill=0;" edge="1" parent="LgfqwrdV0chA7b1CduBd-1" source="1lx8gkwl_eHs_idbSP_l-0" target="LgfqwrdV0chA7b1CduBd-9">
          <mxGeometry relative="1" as="geometry" />
        </mxCell>
        <mxCell id="1lx8gkwl_eHs_idbSP_l-0" value="sideLength" style="shape=parallelogram;perimeter=parallelogramPerimeter;whiteSpace=wrap;html=1;fixedSize=1;rounded=0;strokeColor=default;strokeWidth=2;align=center;verticalAlign=middle;fontFamily=Cascadia Mono;fontSize=12;fontColor=default;fillColor=default;" vertex="1" parent="LgfqwrdV0chA7b1CduBd-1">
          <mxGeometry x="380" y="290" width="310" height="60" as="geometry" />
        </mxCell>
        <mxCell id="1lx8gkwl_eHs_idbSP_l-5" value="" style="edgeStyle=orthogonalEdgeStyle;shape=connector;rounded=0;orthogonalLoop=1;jettySize=auto;html=1;labelBackgroundColor=default;strokeColor=default;strokeWidth=2;align=center;verticalAlign=middle;fontFamily=Cascadia Mono;fontSize=12;fontColor=default;endArrow=none;endFill=0;" edge="1" parent="LgfqwrdV0chA7b1CduBd-1" source="1lx8gkwl_eHs_idbSP_l-3" target="1lx8gkwl_eHs_idbSP_l-4">
          <mxGeometry relative="1" as="geometry" />
        </mxCell>
        <mxCell id="1lx8gkwl_eHs_idbSP_l-3" value="matrix = Tasks2::GenerateMatrix(sideLength)" style="rounded=0;whiteSpace=wrap;html=1;strokeColor=default;strokeWidth=2;align=center;verticalAlign=middle;fontFamily=Cascadia Mono;fontSize=12;fontColor=default;fillColor=default;" vertex="1" parent="LgfqwrdV0chA7b1CduBd-1">
          <mxGeometry x="380" y="490" width="310" height="60" as="geometry" />
        </mxCell>
        <mxCell id="1lx8gkwl_eHs_idbSP_l-8" value="" style="edgeStyle=orthogonalEdgeStyle;shape=connector;rounded=0;orthogonalLoop=1;jettySize=auto;html=1;labelBackgroundColor=default;strokeColor=default;strokeWidth=2;align=center;verticalAlign=middle;fontFamily=Cascadia Mono;fontSize=12;fontColor=default;endArrow=none;endFill=0;" edge="1" parent="LgfqwrdV0chA7b1CduBd-1" source="1lx8gkwl_eHs_idbSP_l-4" target="1lx8gkwl_eHs_idbSP_l-7">
          <mxGeometry relative="1" as="geometry" />
        </mxCell>
        <mxCell id="1lx8gkwl_eHs_idbSP_l-4" value="Tasks2::OutputMatrix(SourceDataGridView, matrix, sideLength)" style="whiteSpace=wrap;html=1;fontFamily=Cascadia Mono;rounded=0;strokeWidth=2;" vertex="1" parent="LgfqwrdV0chA7b1CduBd-1">
          <mxGeometry x="380" y="590" width="310" height="60" as="geometry" />
        </mxCell>
        <mxCell id="1lx8gkwl_eHs_idbSP_l-12" style="edgeStyle=orthogonalEdgeStyle;shape=connector;rounded=0;orthogonalLoop=1;jettySize=auto;html=1;exitX=0.5;exitY=1;exitDx=0;exitDy=0;labelBackgroundColor=default;strokeColor=default;strokeWidth=2;align=center;verticalAlign=middle;fontFamily=Cascadia Mono;fontSize=12;fontColor=default;endArrow=none;endFill=0;" edge="1" parent="LgfqwrdV0chA7b1CduBd-1" source="1lx8gkwl_eHs_idbSP_l-7" target="1lx8gkwl_eHs_idbSP_l-11">
          <mxGeometry relative="1" as="geometry" />
        </mxCell>
        <mxCell id="1lx8gkwl_eHs_idbSP_l-7" value="Tasks2::&lt;br&gt;EndsWith3AndWith5UnderMinorDiagonalCount&lt;br&gt;(matrix, sideLength, endsWith3Count, endsWith5UnderMinorDiagonalCount)" style="whiteSpace=wrap;html=1;fontFamily=Cascadia Mono;rounded=0;strokeWidth=2;" vertex="1" parent="LgfqwrdV0chA7b1CduBd-1">
          <mxGeometry x="380" y="690" width="310" height="60" as="geometry" />
        </mxCell>
        <mxCell id="1lx8gkwl_eHs_idbSP_l-14" style="edgeStyle=orthogonalEdgeStyle;shape=connector;rounded=0;orthogonalLoop=1;jettySize=auto;html=1;exitX=0.5;exitY=1;exitDx=0;exitDy=0;labelBackgroundColor=default;strokeColor=default;strokeWidth=2;align=center;verticalAlign=middle;fontFamily=Cascadia Mono;fontSize=12;fontColor=default;endArrow=none;endFill=0;" edge="1" parent="LgfqwrdV0chA7b1CduBd-1" source="1lx8gkwl_eHs_idbSP_l-11" target="1lx8gkwl_eHs_idbSP_l-13">
          <mxGeometry relative="1" as="geometry" />
        </mxCell>
        <mxCell id="1lx8gkwl_eHs_idbSP_l-11" value="endsWith3Count, endsWith5UnderMinorDiagonalCount" style="shape=parallelogram;perimeter=parallelogramPerimeter;whiteSpace=wrap;html=1;fixedSize=1;rounded=0;strokeColor=default;strokeWidth=2;align=center;verticalAlign=middle;fontFamily=Cascadia Mono;fontSize=12;fontColor=default;fillColor=default;" vertex="1" parent="LgfqwrdV0chA7b1CduBd-1">
          <mxGeometry x="380" y="790" width="310" height="60" as="geometry" />
        </mxCell>
        <mxCell id="1lx8gkwl_eHs_idbSP_l-16" style="edgeStyle=orthogonalEdgeStyle;shape=connector;rounded=0;orthogonalLoop=1;jettySize=auto;html=1;exitX=0.5;exitY=1;exitDx=0;exitDy=0;labelBackgroundColor=default;strokeColor=default;strokeWidth=2;align=center;verticalAlign=middle;fontFamily=Cascadia Mono;fontSize=12;fontColor=default;endArrow=none;endFill=0;" edge="1" parent="LgfqwrdV0chA7b1CduBd-1" source="1lx8gkwl_eHs_idbSP_l-13" target="1lx8gkwl_eHs_idbSP_l-15">
          <mxGeometry relative="1" as="geometry" />
        </mxCell>
        <mxCell id="1lx8gkwl_eHs_idbSP_l-13" value="arrayAboveThreshold = Tasks2::CreateArrayAboveThreshold(matrix, sideLength, endsWith3Count + endsWith5UnderMinorDiagonalCount, arrayLength)" style="whiteSpace=wrap;html=1;fontFamily=Cascadia Mono;rounded=0;strokeWidth=2;" vertex="1" parent="LgfqwrdV0chA7b1CduBd-1">
          <mxGeometry x="380" y="890" width="310" height="90" as="geometry" />
        </mxCell>
        <mxCell id="1lx8gkwl_eHs_idbSP_l-19" style="edgeStyle=orthogonalEdgeStyle;shape=connector;rounded=0;orthogonalLoop=1;jettySize=auto;html=1;exitX=0.5;exitY=1;exitDx=0;exitDy=0;entryX=0.5;entryY=0;entryDx=0;entryDy=0;labelBackgroundColor=default;strokeColor=default;strokeWidth=2;align=center;verticalAlign=middle;fontFamily=Cascadia Mono;fontSize=12;fontColor=default;endArrow=none;endFill=0;" edge="1" parent="LgfqwrdV0chA7b1CduBd-1" source="1lx8gkwl_eHs_idbSP_l-15" target="1lx8gkwl_eHs_idbSP_l-18">
          <mxGeometry relative="1" as="geometry" />
        </mxCell>
        <mxCell id="1lx8gkwl_eHs_idbSP_l-15" value="Tasks1::OutputArray(ResultArrayDataGridView, arrayAboveThreshold, arrayLength)" style="rounded=0;whiteSpace=wrap;html=1;strokeColor=default;strokeWidth=2;align=center;verticalAlign=middle;fontFamily=Cascadia Mono;fontSize=12;fontColor=default;fillColor=default;" vertex="1" parent="LgfqwrdV0chA7b1CduBd-1">
          <mxGeometry x="380" y="1020" width="310" height="60" as="geometry" />
        </mxCell>
        <mxCell id="1lx8gkwl_eHs_idbSP_l-20" style="edgeStyle=orthogonalEdgeStyle;shape=connector;rounded=0;orthogonalLoop=1;jettySize=auto;html=1;exitX=0.5;exitY=1;exitDx=0;exitDy=0;labelBackgroundColor=default;strokeColor=default;strokeWidth=2;align=center;verticalAlign=middle;fontFamily=Cascadia Mono;fontSize=12;fontColor=default;endArrow=none;endFill=0;" edge="1" parent="LgfqwrdV0chA7b1CduBd-1" source="1lx8gkwl_eHs_idbSP_l-18" target="LgfqwrdV0chA7b1CduBd-27">
          <mxGeometry relative="1" as="geometry" />
        </mxCell>
        <mxCell id="1lx8gkwl_eHs_idbSP_l-18" value="Tasks2::DeleteMatrix(matrix, sideLength)" style="rounded=0;whiteSpace=wrap;html=1;strokeColor=default;strokeWidth=2;align=center;verticalAlign=middle;fontFamily=Cascadia Mono;fontSize=12;fontColor=default;fillColor=default;" vertex="1" parent="LgfqwrdV0chA7b1CduBd-1">
          <mxGeometry x="380" y="1120" width="310" height="60" as="geometry" />
        </mxCell>
      </root>
    </mxGraphModel>
  </diagram>
  <diagram name="EndsWith3AndWith5UnderMinorDiagonalCount" id="DnMROHB6tjgdarwNGU6w">
    <mxGraphModel dx="1613" dy="1040" grid="1" gridSize="10" guides="1" tooltips="1" connect="1" arrows="1" fold="1" page="1" pageScale="1" pageWidth="1600" pageHeight="1200" math="0" shadow="0">
      <root>
        <mxCell id="0" />
        <mxCell id="1" parent="0" />
        <mxCell id="Dx3A27PK3qYm2y0LI6H_-5" style="edgeStyle=orthogonalEdgeStyle;rounded=0;orthogonalLoop=1;jettySize=auto;html=1;exitX=0.5;exitY=1;exitDx=0;exitDy=0;entryX=0.5;entryY=0;entryDx=0;entryDy=0;fontFamily=Helvetica;fontSize=12;fontColor=default;endArrow=none;endFill=0;strokeWidth=2;" edge="1" parent="1" source="Dx3A27PK3qYm2y0LI6H_-1" target="Dx3A27PK3qYm2y0LI6H_-4">
          <mxGeometry relative="1" as="geometry" />
        </mxCell>
        <mxCell id="Dx3A27PK3qYm2y0LI6H_-1" value="&lt;font face=&quot;Cascadia Mono&quot;&gt;EndsWith3AndWith5UnderMinorDiagonalCount&lt;/font&gt;" style="rounded=1;whiteSpace=wrap;html=1;arcSize=50;strokeWidth=2;" vertex="1" parent="1">
          <mxGeometry x="380" y="180" width="310" height="70" as="geometry" />
        </mxCell>
        <mxCell id="Dx3A27PK3qYm2y0LI6H_-2" value="&lt;font face=&quot;Cascadia Mono&quot;&gt;Входные параметры:&lt;br&gt;matrix — матрица&lt;br&gt;sideLength — длина стороны квадратной матрицы&lt;br&gt;&lt;br&gt;Выходные параметры:&lt;br&gt;endsWith3Count — кол-во чисел, заканчивающихся на 3&lt;br&gt;endsWith5UnderMinorDiagonalCount — кол-во чисел&lt;br&gt;ниже главной диагонали, заканчивающихся на 5&lt;br&gt;&lt;/font&gt;" style="strokeWidth=2;html=1;shape=mxgraph.flowchart.annotation_1;align=left;pointerEvents=1;rounded=1;strokeColor=default;verticalAlign=middle;fontFamily=Helvetica;fontSize=12;fontColor=default;fillColor=default;spacingLeft=30;" vertex="1" parent="1">
          <mxGeometry x="720" y="145" width="30" height="140" as="geometry" />
        </mxCell>
        <mxCell id="Dx3A27PK3qYm2y0LI6H_-3" style="rounded=0;orthogonalLoop=1;jettySize=auto;html=1;exitX=1;exitY=0.5;exitDx=0;exitDy=0;entryX=0;entryY=0.5;entryDx=0;entryDy=0;entryPerimeter=0;fontFamily=Helvetica;fontSize=12;fontColor=default;dashed=1;strokeWidth=2;endArrow=none;endFill=0;dashPattern=1 2;" edge="1" parent="1" source="Dx3A27PK3qYm2y0LI6H_-1" target="Dx3A27PK3qYm2y0LI6H_-2">
          <mxGeometry relative="1" as="geometry" />
        </mxCell>
        <mxCell id="Dx3A27PK3qYm2y0LI6H_-7" style="edgeStyle=orthogonalEdgeStyle;shape=connector;rounded=0;orthogonalLoop=1;jettySize=auto;html=1;exitX=0.5;exitY=1;exitDx=0;exitDy=0;entryX=0.5;entryY=0;entryDx=0;entryDy=0;labelBackgroundColor=default;strokeColor=default;strokeWidth=2;align=center;verticalAlign=middle;fontFamily=Helvetica;fontSize=12;fontColor=default;endArrow=none;endFill=0;" edge="1" parent="1" source="Dx3A27PK3qYm2y0LI6H_-4" target="Dx3A27PK3qYm2y0LI6H_-6">
          <mxGeometry relative="1" as="geometry" />
        </mxCell>
        <mxCell id="Dx3A27PK3qYm2y0LI6H_-4" value="endsWith3Count = 0" style="rounded=0;whiteSpace=wrap;html=1;strokeColor=default;strokeWidth=2;align=center;verticalAlign=middle;fontFamily=Cascadia Mono;fontSize=12;fontColor=default;fillColor=default;" vertex="1" parent="1">
          <mxGeometry x="380" y="290" width="310" height="60" as="geometry" />
        </mxCell>
        <mxCell id="Dx3A27PK3qYm2y0LI6H_-11" style="edgeStyle=orthogonalEdgeStyle;shape=connector;rounded=0;orthogonalLoop=1;jettySize=auto;html=1;exitX=0.5;exitY=1;exitDx=0;exitDy=0;entryX=0.5;entryY=0;entryDx=0;entryDy=0;labelBackgroundColor=default;strokeColor=default;strokeWidth=2;align=center;verticalAlign=middle;fontFamily=Helvetica;fontSize=12;fontColor=default;endArrow=none;endFill=0;" edge="1" parent="1" source="Dx3A27PK3qYm2y0LI6H_-6" target="Dx3A27PK3qYm2y0LI6H_-9">
          <mxGeometry relative="1" as="geometry" />
        </mxCell>
        <mxCell id="Dx3A27PK3qYm2y0LI6H_-6" value="endsWith5UnderMinorDiagonalCount = 0" style="rounded=0;whiteSpace=wrap;html=1;strokeColor=default;strokeWidth=2;align=center;verticalAlign=middle;fontFamily=Cascadia Mono;fontSize=12;fontColor=default;fillColor=default;" vertex="1" parent="1">
          <mxGeometry x="380" y="390" width="310" height="60" as="geometry" />
        </mxCell>
        <mxCell id="Dx3A27PK3qYm2y0LI6H_-15" style="edgeStyle=orthogonalEdgeStyle;shape=connector;rounded=0;orthogonalLoop=1;jettySize=auto;html=1;exitX=0.5;exitY=1;exitDx=0;exitDy=0;entryX=0.5;entryY=0;entryDx=0;entryDy=0;labelBackgroundColor=default;strokeColor=default;strokeWidth=2;align=center;verticalAlign=middle;fontFamily=Cascadia Mono;fontSize=12;fontColor=default;endArrow=none;endFill=0;" edge="1" parent="1" source="Dx3A27PK3qYm2y0LI6H_-9" target="Dx3A27PK3qYm2y0LI6H_-12">
          <mxGeometry relative="1" as="geometry" />
        </mxCell>
        <mxCell id="Dx3A27PK3qYm2y0LI6H_-9" value="i = 0; i &amp;lt; sideLength; i++" style="shape=loopLimit;whiteSpace=wrap;html=1;rounded=0;strokeColor=default;strokeWidth=2;align=center;verticalAlign=middle;fontFamily=Cascadia Mono;fontSize=12;fontColor=default;fillColor=default;arcSize=0;" vertex="1" parent="1">
          <mxGeometry x="380" y="490" width="310" height="60" as="geometry" />
        </mxCell>
        <mxCell id="Dx3A27PK3qYm2y0LI6H_-14" style="edgeStyle=orthogonalEdgeStyle;shape=connector;rounded=0;orthogonalLoop=1;jettySize=auto;html=1;exitX=0.5;exitY=1;exitDx=0;exitDy=0;entryX=0.5;entryY=0;entryDx=0;entryDy=0;labelBackgroundColor=default;strokeColor=default;strokeWidth=2;align=center;verticalAlign=middle;fontFamily=Cascadia Mono;fontSize=12;fontColor=default;endArrow=none;endFill=0;" edge="1" parent="1" source="Dx3A27PK3qYm2y0LI6H_-10" target="Dx3A27PK3qYm2y0LI6H_-13">
          <mxGeometry relative="1" as="geometry" />
        </mxCell>
        <mxCell id="Dx3A27PK3qYm2y0LI6H_-10" value="j" style="shape=loopLimit;whiteSpace=wrap;html=1;rounded=1;strokeColor=default;strokeWidth=2;align=center;verticalAlign=middle;fontFamily=Cascadia Mono;fontSize=12;fontColor=default;fillColor=default;arcSize=0;flipV=1;" vertex="1" parent="1">
          <mxGeometry x="380" y="1130" width="310" height="60" as="geometry" />
        </mxCell>
        <mxCell id="Dx3A27PK3qYm2y0LI6H_-17" style="edgeStyle=orthogonalEdgeStyle;shape=connector;rounded=0;orthogonalLoop=1;jettySize=auto;html=1;exitX=0.5;exitY=1;exitDx=0;exitDy=0;entryX=0.5;entryY=0;entryDx=0;entryDy=0;labelBackgroundColor=default;strokeColor=default;strokeWidth=2;align=center;verticalAlign=middle;fontFamily=Cascadia Mono;fontSize=12;fontColor=default;endArrow=none;endFill=0;" edge="1" parent="1" source="Dx3A27PK3qYm2y0LI6H_-12" target="Dx3A27PK3qYm2y0LI6H_-16">
          <mxGeometry relative="1" as="geometry" />
        </mxCell>
        <mxCell id="Dx3A27PK3qYm2y0LI6H_-12" value="j = 0; j &amp;lt; sideLength; j++" style="shape=loopLimit;whiteSpace=wrap;html=1;rounded=0;strokeColor=default;strokeWidth=2;align=center;verticalAlign=middle;fontFamily=Cascadia Mono;fontSize=12;fontColor=default;fillColor=default;arcSize=0;size=20;" vertex="1" parent="1">
          <mxGeometry x="380" y="590" width="310" height="60" as="geometry" />
        </mxCell>
        <mxCell id="Dx3A27PK3qYm2y0LI6H_-34" style="edgeStyle=orthogonalEdgeStyle;shape=connector;rounded=0;orthogonalLoop=1;jettySize=auto;html=1;exitX=0.5;exitY=1;exitDx=0;exitDy=0;entryX=0.5;entryY=0;entryDx=0;entryDy=0;labelBackgroundColor=default;strokeColor=default;strokeWidth=2;align=center;verticalAlign=middle;fontFamily=Cascadia Mono;fontSize=12;fontColor=default;endArrow=none;endFill=0;" edge="1" parent="1" source="Dx3A27PK3qYm2y0LI6H_-13" target="Dx3A27PK3qYm2y0LI6H_-33">
          <mxGeometry relative="1" as="geometry" />
        </mxCell>
        <mxCell id="Dx3A27PK3qYm2y0LI6H_-13" value="i" style="shape=loopLimit;whiteSpace=wrap;html=1;rounded=1;strokeColor=default;strokeWidth=2;align=center;verticalAlign=middle;fontFamily=Cascadia Mono;fontSize=12;fontColor=default;fillColor=default;arcSize=0;flipV=1;" vertex="1" parent="1">
          <mxGeometry x="380" y="1230" width="310" height="60" as="geometry" />
        </mxCell>
        <mxCell id="Dx3A27PK3qYm2y0LI6H_-19" style="edgeStyle=orthogonalEdgeStyle;shape=connector;rounded=0;orthogonalLoop=1;jettySize=auto;html=1;exitX=1;exitY=0.5;exitDx=0;exitDy=0;entryX=0.5;entryY=0;entryDx=0;entryDy=0;labelBackgroundColor=default;strokeColor=default;strokeWidth=2;align=center;verticalAlign=middle;fontFamily=Cascadia Mono;fontSize=12;fontColor=default;endArrow=none;endFill=0;" edge="1" parent="1" source="Dx3A27PK3qYm2y0LI6H_-16" target="Dx3A27PK3qYm2y0LI6H_-18">
          <mxGeometry relative="1" as="geometry" />
        </mxCell>
        <mxCell id="Dx3A27PK3qYm2y0LI6H_-28" value="да" style="edgeLabel;html=1;align=center;verticalAlign=middle;resizable=0;points=[];fontSize=12;fontFamily=Cascadia Mono;fontColor=default;" vertex="1" connectable="0" parent="Dx3A27PK3qYm2y0LI6H_-19">
          <mxGeometry x="-0.39" y="-1" relative="1" as="geometry">
            <mxPoint as="offset" />
          </mxGeometry>
        </mxCell>
        <mxCell id="Dx3A27PK3qYm2y0LI6H_-26" style="edgeStyle=orthogonalEdgeStyle;shape=connector;rounded=0;orthogonalLoop=1;jettySize=auto;html=1;exitX=0;exitY=0.5;exitDx=0;exitDy=0;entryX=0.5;entryY=0;entryDx=0;entryDy=0;labelBackgroundColor=default;strokeColor=default;strokeWidth=2;align=center;verticalAlign=middle;fontFamily=Cascadia Mono;fontSize=12;fontColor=default;endArrow=none;endFill=0;" edge="1" parent="1" source="Dx3A27PK3qYm2y0LI6H_-16" target="Dx3A27PK3qYm2y0LI6H_-23">
          <mxGeometry relative="1" as="geometry">
            <Array as="points">
              <mxPoint x="310" y="730" />
              <mxPoint x="310" y="890" />
              <mxPoint x="535" y="890" />
            </Array>
          </mxGeometry>
        </mxCell>
        <mxCell id="Dx3A27PK3qYm2y0LI6H_-27" value="нет" style="edgeLabel;html=1;align=center;verticalAlign=middle;resizable=0;points=[];fontSize=12;fontFamily=Cascadia Mono;fontColor=default;" vertex="1" connectable="0" parent="Dx3A27PK3qYm2y0LI6H_-26">
          <mxGeometry x="-0.8484" y="5" relative="1" as="geometry">
            <mxPoint y="-5" as="offset" />
          </mxGeometry>
        </mxCell>
        <mxCell id="Dx3A27PK3qYm2y0LI6H_-16" value="matrix[i][j] % 10 == 3" style="rhombus;whiteSpace=wrap;html=1;rounded=0;strokeColor=default;strokeWidth=2;align=center;verticalAlign=middle;fontFamily=Cascadia Mono;fontSize=12;fontColor=default;fillColor=default;arcSize=0;" vertex="1" parent="1">
          <mxGeometry x="380" y="690" width="310" height="80" as="geometry" />
        </mxCell>
        <mxCell id="Dx3A27PK3qYm2y0LI6H_-25" style="edgeStyle=orthogonalEdgeStyle;shape=connector;rounded=0;orthogonalLoop=1;jettySize=auto;html=1;exitX=0.5;exitY=1;exitDx=0;exitDy=0;entryX=0.5;entryY=0;entryDx=0;entryDy=0;labelBackgroundColor=default;strokeColor=default;strokeWidth=2;align=center;verticalAlign=middle;fontFamily=Cascadia Mono;fontSize=12;fontColor=default;endArrow=none;endFill=0;" edge="1" parent="1" source="Dx3A27PK3qYm2y0LI6H_-18" target="Dx3A27PK3qYm2y0LI6H_-23">
          <mxGeometry relative="1" as="geometry" />
        </mxCell>
        <mxCell id="Dx3A27PK3qYm2y0LI6H_-18" value="endsWith3Count++" style="rounded=0;whiteSpace=wrap;html=1;strokeColor=default;strokeWidth=2;align=center;verticalAlign=middle;fontFamily=Cascadia Mono;fontSize=12;fontColor=default;fillColor=default;" vertex="1" parent="1">
          <mxGeometry x="690" y="810" width="280" height="60" as="geometry" />
        </mxCell>
        <mxCell id="Dx3A27PK3qYm2y0LI6H_-22" style="edgeStyle=orthogonalEdgeStyle;shape=connector;rounded=0;orthogonalLoop=1;jettySize=auto;html=1;exitX=1;exitY=0.5;exitDx=0;exitDy=0;entryX=0.5;entryY=0;entryDx=0;entryDy=0;labelBackgroundColor=default;strokeColor=default;strokeWidth=2;align=center;verticalAlign=middle;fontFamily=Cascadia Mono;fontSize=12;fontColor=default;endArrow=none;endFill=0;" edge="1" parent="1" source="Dx3A27PK3qYm2y0LI6H_-23" target="Dx3A27PK3qYm2y0LI6H_-24">
          <mxGeometry relative="1" as="geometry" />
        </mxCell>
        <mxCell id="Dx3A27PK3qYm2y0LI6H_-32" value="да" style="edgeLabel;html=1;align=center;verticalAlign=middle;resizable=0;points=[];fontSize=12;fontFamily=Cascadia Mono;fontColor=default;" vertex="1" connectable="0" parent="Dx3A27PK3qYm2y0LI6H_-22">
          <mxGeometry x="-0.3818" relative="1" as="geometry">
            <mxPoint as="offset" />
          </mxGeometry>
        </mxCell>
        <mxCell id="Dx3A27PK3qYm2y0LI6H_-29" style="edgeStyle=orthogonalEdgeStyle;shape=connector;rounded=0;orthogonalLoop=1;jettySize=auto;html=1;exitX=0;exitY=0.5;exitDx=0;exitDy=0;entryX=0.5;entryY=0;entryDx=0;entryDy=0;labelBackgroundColor=default;strokeColor=default;strokeWidth=2;align=center;verticalAlign=middle;fontFamily=Cascadia Mono;fontSize=12;fontColor=default;endArrow=none;endFill=0;" edge="1" parent="1" source="Dx3A27PK3qYm2y0LI6H_-23" target="Dx3A27PK3qYm2y0LI6H_-10">
          <mxGeometry relative="1" as="geometry">
            <Array as="points">
              <mxPoint x="310" y="950" />
              <mxPoint x="310" y="1110" />
              <mxPoint x="535" y="1110" />
            </Array>
          </mxGeometry>
        </mxCell>
        <mxCell id="Dx3A27PK3qYm2y0LI6H_-31" value="нет" style="edgeLabel;html=1;align=center;verticalAlign=middle;resizable=0;points=[];fontSize=12;fontFamily=Cascadia Mono;fontColor=default;" vertex="1" connectable="0" parent="Dx3A27PK3qYm2y0LI6H_-29">
          <mxGeometry x="-0.8568" y="-2" relative="1" as="geometry">
            <mxPoint as="offset" />
          </mxGeometry>
        </mxCell>
        <mxCell id="Dx3A27PK3qYm2y0LI6H_-23" value="matrix[i][j] % 10 == 3" style="rhombus;whiteSpace=wrap;html=1;rounded=0;strokeColor=default;strokeWidth=2;align=center;verticalAlign=middle;fontFamily=Cascadia Mono;fontSize=12;fontColor=default;fillColor=default;arcSize=0;" vertex="1" parent="1">
          <mxGeometry x="380" y="910" width="310" height="80" as="geometry" />
        </mxCell>
        <mxCell id="Dx3A27PK3qYm2y0LI6H_-30" style="edgeStyle=orthogonalEdgeStyle;shape=connector;rounded=0;orthogonalLoop=1;jettySize=auto;html=1;exitX=0.5;exitY=1;exitDx=0;exitDy=0;entryX=0.5;entryY=0;entryDx=0;entryDy=0;labelBackgroundColor=default;strokeColor=default;strokeWidth=2;align=center;verticalAlign=middle;fontFamily=Cascadia Mono;fontSize=12;fontColor=default;endArrow=none;endFill=0;" edge="1" parent="1" source="Dx3A27PK3qYm2y0LI6H_-24" target="Dx3A27PK3qYm2y0LI6H_-10">
          <mxGeometry relative="1" as="geometry" />
        </mxCell>
        <mxCell id="Dx3A27PK3qYm2y0LI6H_-24" value="endsWith5UnderMinorDiagonalCount++" style="rounded=0;whiteSpace=wrap;html=1;strokeColor=default;strokeWidth=2;align=center;verticalAlign=middle;fontFamily=Cascadia Mono;fontSize=12;fontColor=default;fillColor=default;" vertex="1" parent="1">
          <mxGeometry x="690" y="1030" width="280" height="60" as="geometry" />
        </mxCell>
        <mxCell id="Dx3A27PK3qYm2y0LI6H_-33" value="&lt;font face=&quot;Cascadia Mono&quot;&gt;Конец&lt;/font&gt;" style="rounded=1;whiteSpace=wrap;html=1;arcSize=50;strokeWidth=2;" vertex="1" parent="1">
          <mxGeometry x="380" y="1330" width="310" height="70" as="geometry" />
        </mxCell>
      </root>
    </mxGraphModel>
  </diagram>
  <diagram name="CreateArrayAboveThreshold" id="DYpeNUCJwhAzZ5KTEc85">
    <mxGraphModel dx="1371" dy="884" grid="1" gridSize="10" guides="1" tooltips="1" connect="1" arrows="1" fold="1" page="1" pageScale="1" pageWidth="1600" pageHeight="1200" math="0" shadow="0">
      <root>
        <mxCell id="0" />
        <mxCell id="1" parent="0" />
        <mxCell id="G_j7bIVwT-zga_MA3Yqq-1" style="edgeStyle=orthogonalEdgeStyle;rounded=0;orthogonalLoop=1;jettySize=auto;html=1;exitX=0.5;exitY=1;exitDx=0;exitDy=0;entryX=0.5;entryY=0;entryDx=0;entryDy=0;fontFamily=Helvetica;fontSize=12;fontColor=default;endArrow=none;endFill=0;strokeWidth=2;" edge="1" parent="1" source="G_j7bIVwT-zga_MA3Yqq-2" target="G_j7bIVwT-zga_MA3Yqq-6">
          <mxGeometry relative="1" as="geometry" />
        </mxCell>
        <mxCell id="G_j7bIVwT-zga_MA3Yqq-2" value="&lt;font face=&quot;Cascadia Mono&quot;&gt;CreateArrayAboveThreshold&lt;/font&gt;" style="rounded=1;whiteSpace=wrap;html=1;arcSize=50;strokeWidth=2;" vertex="1" parent="1">
          <mxGeometry x="380" y="180" width="310" height="70" as="geometry" />
        </mxCell>
        <mxCell id="G_j7bIVwT-zga_MA3Yqq-3" value="&lt;font face=&quot;Cascadia Mono&quot;&gt;Входные параметры:&lt;br&gt;matrix — матрица&lt;br&gt;sideLength — длина стороны квадратной матрицы&lt;br&gt;threshold — граница, выше к-рой будут&lt;br&gt;выбираться числа&lt;br&gt;&lt;br&gt;Выходные параметры:&lt;br&gt;arrayLength — длина массива&lt;br&gt;&lt;br&gt;Возвращает:&lt;br&gt;новый массив&lt;br&gt;&lt;/font&gt;" style="strokeWidth=2;html=1;shape=mxgraph.flowchart.annotation_1;align=left;pointerEvents=1;rounded=1;strokeColor=default;verticalAlign=middle;fontFamily=Helvetica;fontSize=12;fontColor=default;fillColor=default;spacingLeft=30;" vertex="1" parent="1">
          <mxGeometry x="720" y="145" width="30" height="185" as="geometry" />
        </mxCell>
        <mxCell id="G_j7bIVwT-zga_MA3Yqq-4" style="rounded=0;orthogonalLoop=1;jettySize=auto;html=1;exitX=1;exitY=0.5;exitDx=0;exitDy=0;entryX=0;entryY=0.5;entryDx=0;entryDy=0;entryPerimeter=0;fontFamily=Helvetica;fontSize=12;fontColor=default;dashed=1;strokeWidth=2;endArrow=none;endFill=0;dashPattern=1 2;" edge="1" parent="1" source="G_j7bIVwT-zga_MA3Yqq-2" target="G_j7bIVwT-zga_MA3Yqq-3">
          <mxGeometry relative="1" as="geometry" />
        </mxCell>
        <mxCell id="G_j7bIVwT-zga_MA3Yqq-5" style="edgeStyle=orthogonalEdgeStyle;shape=connector;rounded=0;orthogonalLoop=1;jettySize=auto;html=1;exitX=0.5;exitY=1;exitDx=0;exitDy=0;entryX=0.5;entryY=0;entryDx=0;entryDy=0;labelBackgroundColor=default;strokeColor=default;strokeWidth=2;align=center;verticalAlign=middle;fontFamily=Helvetica;fontSize=12;fontColor=default;endArrow=none;endFill=0;" edge="1" parent="1" source="G_j7bIVwT-zga_MA3Yqq-6" target="G_j7bIVwT-zga_MA3Yqq-8">
          <mxGeometry relative="1" as="geometry" />
        </mxCell>
        <mxCell id="G_j7bIVwT-zga_MA3Yqq-6" value="arr = new int[sideLength * sideLength]" style="rounded=0;whiteSpace=wrap;html=1;strokeColor=default;strokeWidth=2;align=center;verticalAlign=middle;fontFamily=Cascadia Mono;fontSize=12;fontColor=default;fillColor=default;" vertex="1" parent="1">
          <mxGeometry x="380" y="290" width="310" height="60" as="geometry" />
        </mxCell>
        <mxCell id="G_j7bIVwT-zga_MA3Yqq-7" style="edgeStyle=orthogonalEdgeStyle;shape=connector;rounded=0;orthogonalLoop=1;jettySize=auto;html=1;exitX=0.5;exitY=1;exitDx=0;exitDy=0;entryX=0.5;entryY=0;entryDx=0;entryDy=0;labelBackgroundColor=default;strokeColor=default;strokeWidth=2;align=center;verticalAlign=middle;fontFamily=Helvetica;fontSize=12;fontColor=default;endArrow=none;endFill=0;" edge="1" parent="1" source="G_j7bIVwT-zga_MA3Yqq-8" target="G_j7bIVwT-zga_MA3Yqq-10">
          <mxGeometry relative="1" as="geometry" />
        </mxCell>
        <mxCell id="G_j7bIVwT-zga_MA3Yqq-8" value="arrayLength = 0" style="rounded=0;whiteSpace=wrap;html=1;strokeColor=default;strokeWidth=2;align=center;verticalAlign=middle;fontFamily=Cascadia Mono;fontSize=12;fontColor=default;fillColor=default;" vertex="1" parent="1">
          <mxGeometry x="380" y="390" width="310" height="60" as="geometry" />
        </mxCell>
        <mxCell id="G_j7bIVwT-zga_MA3Yqq-9" style="edgeStyle=orthogonalEdgeStyle;shape=connector;rounded=0;orthogonalLoop=1;jettySize=auto;html=1;exitX=0.5;exitY=1;exitDx=0;exitDy=0;entryX=0.5;entryY=0;entryDx=0;entryDy=0;labelBackgroundColor=default;strokeColor=default;strokeWidth=2;align=center;verticalAlign=middle;fontFamily=Cascadia Mono;fontSize=12;fontColor=default;endArrow=none;endFill=0;" edge="1" parent="1" source="G_j7bIVwT-zga_MA3Yqq-10" target="G_j7bIVwT-zga_MA3Yqq-14">
          <mxGeometry relative="1" as="geometry" />
        </mxCell>
        <mxCell id="G_j7bIVwT-zga_MA3Yqq-10" value="i = 0; i &amp;lt; sideLength; i++" style="shape=loopLimit;whiteSpace=wrap;html=1;rounded=0;strokeColor=default;strokeWidth=2;align=center;verticalAlign=middle;fontFamily=Cascadia Mono;fontSize=12;fontColor=default;fillColor=default;arcSize=0;" vertex="1" parent="1">
          <mxGeometry x="380" y="490" width="310" height="60" as="geometry" />
        </mxCell>
        <mxCell id="G_j7bIVwT-zga_MA3Yqq-11" style="edgeStyle=orthogonalEdgeStyle;shape=connector;rounded=0;orthogonalLoop=1;jettySize=auto;html=1;exitX=0.5;exitY=1;exitDx=0;exitDy=0;entryX=0.5;entryY=0;entryDx=0;entryDy=0;labelBackgroundColor=default;strokeColor=default;strokeWidth=2;align=center;verticalAlign=middle;fontFamily=Cascadia Mono;fontSize=12;fontColor=default;endArrow=none;endFill=0;" edge="1" parent="1" source="G_j7bIVwT-zga_MA3Yqq-12" target="G_j7bIVwT-zga_MA3Yqq-16">
          <mxGeometry relative="1" as="geometry" />
        </mxCell>
        <mxCell id="G_j7bIVwT-zga_MA3Yqq-12" value="j" style="shape=loopLimit;whiteSpace=wrap;html=1;rounded=1;strokeColor=default;strokeWidth=2;align=center;verticalAlign=middle;fontFamily=Cascadia Mono;fontSize=12;fontColor=default;fillColor=default;arcSize=0;flipV=1;" vertex="1" parent="1">
          <mxGeometry x="380" y="910" width="310" height="60" as="geometry" />
        </mxCell>
        <mxCell id="G_j7bIVwT-zga_MA3Yqq-13" style="edgeStyle=orthogonalEdgeStyle;shape=connector;rounded=0;orthogonalLoop=1;jettySize=auto;html=1;exitX=0.5;exitY=1;exitDx=0;exitDy=0;entryX=0.5;entryY=0;entryDx=0;entryDy=0;labelBackgroundColor=default;strokeColor=default;strokeWidth=2;align=center;verticalAlign=middle;fontFamily=Cascadia Mono;fontSize=12;fontColor=default;endArrow=none;endFill=0;" edge="1" parent="1" source="G_j7bIVwT-zga_MA3Yqq-14" target="G_j7bIVwT-zga_MA3Yqq-21">
          <mxGeometry relative="1" as="geometry" />
        </mxCell>
        <mxCell id="G_j7bIVwT-zga_MA3Yqq-14" value="j = 0; j &amp;lt; sideLength; j++" style="shape=loopLimit;whiteSpace=wrap;html=1;rounded=0;strokeColor=default;strokeWidth=2;align=center;verticalAlign=middle;fontFamily=Cascadia Mono;fontSize=12;fontColor=default;fillColor=default;arcSize=0;size=20;" vertex="1" parent="1">
          <mxGeometry x="380" y="590" width="310" height="60" as="geometry" />
        </mxCell>
        <mxCell id="G_j7bIVwT-zga_MA3Yqq-33" style="edgeStyle=orthogonalEdgeStyle;shape=connector;rounded=0;orthogonalLoop=1;jettySize=auto;html=1;exitX=0.5;exitY=1;exitDx=0;exitDy=0;entryX=0.5;entryY=0;entryDx=0;entryDy=0;labelBackgroundColor=default;strokeColor=default;strokeWidth=2;align=center;verticalAlign=middle;fontFamily=Cascadia Mono;fontSize=12;fontColor=default;endArrow=none;endFill=0;" edge="1" parent="1" source="G_j7bIVwT-zga_MA3Yqq-16" target="G_j7bIVwT-zga_MA3Yqq-32">
          <mxGeometry relative="1" as="geometry" />
        </mxCell>
        <mxCell id="G_j7bIVwT-zga_MA3Yqq-16" value="i" style="shape=loopLimit;whiteSpace=wrap;html=1;rounded=1;strokeColor=default;strokeWidth=2;align=center;verticalAlign=middle;fontFamily=Cascadia Mono;fontSize=12;fontColor=default;fillColor=default;arcSize=0;flipV=1;" vertex="1" parent="1">
          <mxGeometry x="380" y="1010" width="310" height="60" as="geometry" />
        </mxCell>
        <mxCell id="G_j7bIVwT-zga_MA3Yqq-17" style="edgeStyle=orthogonalEdgeStyle;shape=connector;rounded=0;orthogonalLoop=1;jettySize=auto;html=1;exitX=1;exitY=0.5;exitDx=0;exitDy=0;entryX=0.5;entryY=0;entryDx=0;entryDy=0;labelBackgroundColor=default;strokeColor=default;strokeWidth=2;align=center;verticalAlign=middle;fontFamily=Cascadia Mono;fontSize=12;fontColor=default;endArrow=none;endFill=0;" edge="1" parent="1" source="G_j7bIVwT-zga_MA3Yqq-21" target="G_j7bIVwT-zga_MA3Yqq-23">
          <mxGeometry relative="1" as="geometry" />
        </mxCell>
        <mxCell id="G_j7bIVwT-zga_MA3Yqq-18" value="да" style="edgeLabel;html=1;align=center;verticalAlign=middle;resizable=0;points=[];fontSize=12;fontFamily=Cascadia Mono;fontColor=default;" vertex="1" connectable="0" parent="G_j7bIVwT-zga_MA3Yqq-17">
          <mxGeometry x="-0.39" y="-1" relative="1" as="geometry">
            <mxPoint as="offset" />
          </mxGeometry>
        </mxCell>
        <mxCell id="G_j7bIVwT-zga_MA3Yqq-19" style="edgeStyle=orthogonalEdgeStyle;shape=connector;rounded=0;orthogonalLoop=1;jettySize=auto;html=1;exitX=0;exitY=0.5;exitDx=0;exitDy=0;entryX=0.5;entryY=0;entryDx=0;entryDy=0;labelBackgroundColor=default;strokeColor=default;strokeWidth=2;align=center;verticalAlign=middle;fontFamily=Cascadia Mono;fontSize=12;fontColor=default;endArrow=none;endFill=0;" edge="1" parent="1" source="G_j7bIVwT-zga_MA3Yqq-21">
          <mxGeometry relative="1" as="geometry">
            <Array as="points">
              <mxPoint x="310" y="730" />
              <mxPoint x="310" y="890" />
              <mxPoint x="535" y="890" />
            </Array>
            <mxPoint x="535" y="910" as="targetPoint" />
          </mxGeometry>
        </mxCell>
        <mxCell id="G_j7bIVwT-zga_MA3Yqq-20" value="нет" style="edgeLabel;html=1;align=center;verticalAlign=middle;resizable=0;points=[];fontSize=12;fontFamily=Cascadia Mono;fontColor=default;" vertex="1" connectable="0" parent="G_j7bIVwT-zga_MA3Yqq-19">
          <mxGeometry x="-0.8484" y="5" relative="1" as="geometry">
            <mxPoint y="-5" as="offset" />
          </mxGeometry>
        </mxCell>
        <mxCell id="G_j7bIVwT-zga_MA3Yqq-21" value="matrix[i][j] &amp;gt; threshold" style="rhombus;whiteSpace=wrap;html=1;rounded=0;strokeColor=default;strokeWidth=2;align=center;verticalAlign=middle;fontFamily=Cascadia Mono;fontSize=12;fontColor=default;fillColor=default;arcSize=0;" vertex="1" parent="1">
          <mxGeometry x="380" y="690" width="310" height="80" as="geometry" />
        </mxCell>
        <mxCell id="G_j7bIVwT-zga_MA3Yqq-22" style="edgeStyle=orthogonalEdgeStyle;shape=connector;rounded=0;orthogonalLoop=1;jettySize=auto;html=1;exitX=0.5;exitY=1;exitDx=0;exitDy=0;entryX=0.5;entryY=0;entryDx=0;entryDy=0;labelBackgroundColor=default;strokeColor=default;strokeWidth=2;align=center;verticalAlign=middle;fontFamily=Cascadia Mono;fontSize=12;fontColor=default;endArrow=none;endFill=0;" edge="1" parent="1" source="G_j7bIVwT-zga_MA3Yqq-23">
          <mxGeometry relative="1" as="geometry">
            <mxPoint x="535" y="910" as="targetPoint" />
          </mxGeometry>
        </mxCell>
        <mxCell id="G_j7bIVwT-zga_MA3Yqq-23" value="arr[arrayLength++] = matrix[i][j]" style="rounded=0;whiteSpace=wrap;html=1;strokeColor=default;strokeWidth=2;align=center;verticalAlign=middle;fontFamily=Cascadia Mono;fontSize=12;fontColor=default;fillColor=default;" vertex="1" parent="1">
          <mxGeometry x="690" y="810" width="280" height="60" as="geometry" />
        </mxCell>
        <mxCell id="G_j7bIVwT-zga_MA3Yqq-31" value="&lt;font face=&quot;Cascadia Mono&quot;&gt;Конец&lt;/font&gt;" style="rounded=1;whiteSpace=wrap;html=1;arcSize=50;strokeWidth=2;" vertex="1" parent="1">
          <mxGeometry x="380" y="1210" width="310" height="70" as="geometry" />
        </mxCell>
        <mxCell id="G_j7bIVwT-zga_MA3Yqq-34" style="edgeStyle=orthogonalEdgeStyle;shape=connector;rounded=0;orthogonalLoop=1;jettySize=auto;html=1;exitX=0.5;exitY=1;exitDx=0;exitDy=0;entryX=0.5;entryY=0;entryDx=0;entryDy=0;labelBackgroundColor=default;strokeColor=default;strokeWidth=2;align=center;verticalAlign=middle;fontFamily=Cascadia Mono;fontSize=12;fontColor=default;endArrow=none;endFill=0;" edge="1" parent="1" source="G_j7bIVwT-zga_MA3Yqq-32" target="G_j7bIVwT-zga_MA3Yqq-31">
          <mxGeometry relative="1" as="geometry" />
        </mxCell>
        <mxCell id="G_j7bIVwT-zga_MA3Yqq-32" value="CreateArrayAboveThreshold =&amp;nbsp;arr" style="rounded=0;whiteSpace=wrap;html=1;strokeColor=default;strokeWidth=2;align=center;verticalAlign=middle;fontFamily=Cascadia Mono;fontSize=12;fontColor=default;fillColor=default;" vertex="1" parent="1">
          <mxGeometry x="380" y="1110" width="310" height="60" as="geometry" />
        </mxCell>
      </root>
    </mxGraphModel>
  </diagram>
  <diagram name="Событийная" id="4VHSP6MmrUS8gPRXt8aP">
    <mxGraphModel dx="1371" dy="884" grid="1" gridSize="10" guides="1" tooltips="1" connect="1" arrows="1" fold="1" page="1" pageScale="1" pageWidth="1600" pageHeight="1200" math="0" shadow="0">
      <root>
        <mxCell id="LgfqwrdV0chA7b1CduBd-0" />
        <mxCell id="LgfqwrdV0chA7b1CduBd-1" parent="LgfqwrdV0chA7b1CduBd-0" />
        <mxCell id="1lx8gkwl_eHs_idbSP_l-10" style="edgeStyle=orthogonalEdgeStyle;shape=connector;rounded=0;orthogonalLoop=1;jettySize=auto;html=1;exitX=0.5;exitY=1;exitDx=0;exitDy=0;labelBackgroundColor=default;strokeColor=default;strokeWidth=2;align=center;verticalAlign=middle;fontFamily=Cascadia Mono;fontSize=12;fontColor=default;endArrow=none;endFill=0;" edge="1" parent="LgfqwrdV0chA7b1CduBd-1" source="LgfqwrdV0chA7b1CduBd-3" target="1lx8gkwl_eHs_idbSP_l-0">
          <mxGeometry relative="1" as="geometry" />
        </mxCell>
        <mxCell id="LgfqwrdV0chA7b1CduBd-3" value="&lt;font face=&quot;Cascadia Mono&quot;&gt;CalculateButton_Click&lt;/font&gt;" style="rounded=1;whiteSpace=wrap;html=1;arcSize=50;strokeWidth=2;" vertex="1" parent="LgfqwrdV0chA7b1CduBd-1">
          <mxGeometry x="380" y="180" width="310" height="70" as="geometry" />
        </mxCell>
        <mxCell id="1lx8gkwl_eHs_idbSP_l-9" style="edgeStyle=orthogonalEdgeStyle;shape=connector;rounded=0;orthogonalLoop=1;jettySize=auto;html=1;exitX=0.5;exitY=1;exitDx=0;exitDy=0;entryX=0.5;entryY=0;entryDx=0;entryDy=0;labelBackgroundColor=default;strokeColor=default;strokeWidth=2;align=center;verticalAlign=middle;fontFamily=Cascadia Mono;fontSize=12;fontColor=default;endArrow=none;endFill=0;" edge="1" parent="LgfqwrdV0chA7b1CduBd-1" source="LgfqwrdV0chA7b1CduBd-9" target="1lx8gkwl_eHs_idbSP_l-3">
          <mxGeometry relative="1" as="geometry" />
        </mxCell>
        <mxCell id="LgfqwrdV0chA7b1CduBd-9" value="arrayLength = 0" style="rounded=0;whiteSpace=wrap;html=1;strokeColor=default;strokeWidth=2;align=center;verticalAlign=middle;fontFamily=Cascadia Mono;fontSize=12;fontColor=default;fillColor=default;" vertex="1" parent="LgfqwrdV0chA7b1CduBd-1">
          <mxGeometry x="380" y="390" width="310" height="60" as="geometry" />
        </mxCell>
        <mxCell id="LgfqwrdV0chA7b1CduBd-25" value="&lt;font face=&quot;Cascadia Mono&quot;&gt;Конец&lt;/font&gt;" style="rounded=1;whiteSpace=wrap;html=1;arcSize=50;strokeWidth=2;" vertex="1" parent="LgfqwrdV0chA7b1CduBd-1">
          <mxGeometry x="380" y="1320" width="310" height="70" as="geometry" />
        </mxCell>
        <mxCell id="LgfqwrdV0chA7b1CduBd-26" style="edgeStyle=orthogonalEdgeStyle;shape=connector;rounded=0;orthogonalLoop=1;jettySize=auto;html=1;exitX=0.5;exitY=1;exitDx=0;exitDy=0;entryX=0.5;entryY=0;entryDx=0;entryDy=0;labelBackgroundColor=default;strokeColor=default;strokeWidth=2;align=center;verticalAlign=middle;fontFamily=Cascadia Mono;fontSize=12;fontColor=default;endArrow=none;endFill=0;" edge="1" parent="LgfqwrdV0chA7b1CduBd-1" source="LgfqwrdV0chA7b1CduBd-27" target="LgfqwrdV0chA7b1CduBd-25">
          <mxGeometry relative="1" as="geometry" />
        </mxCell>
        <mxCell id="LgfqwrdV0chA7b1CduBd-27" value="delete[] arrayAboveThreshold" style="rounded=0;whiteSpace=wrap;html=1;strokeColor=default;strokeWidth=2;align=center;verticalAlign=middle;fontFamily=Cascadia Mono;fontSize=12;fontColor=default;fillColor=default;" vertex="1" parent="LgfqwrdV0chA7b1CduBd-1">
          <mxGeometry x="380" y="1220" width="310" height="60" as="geometry" />
        </mxCell>
        <mxCell id="1lx8gkwl_eHs_idbSP_l-1" style="edgeStyle=orthogonalEdgeStyle;shape=connector;rounded=0;orthogonalLoop=1;jettySize=auto;html=1;exitX=0.5;exitY=1;exitDx=0;exitDy=0;labelBackgroundColor=default;strokeColor=default;strokeWidth=2;align=center;verticalAlign=middle;fontFamily=Cascadia Mono;fontSize=12;fontColor=default;endArrow=none;endFill=0;" edge="1" parent="LgfqwrdV0chA7b1CduBd-1" source="1lx8gkwl_eHs_idbSP_l-0" target="LgfqwrdV0chA7b1CduBd-9">
          <mxGeometry relative="1" as="geometry" />
        </mxCell>
        <mxCell id="1lx8gkwl_eHs_idbSP_l-0" value="sideLength" style="shape=parallelogram;perimeter=parallelogramPerimeter;whiteSpace=wrap;html=1;fixedSize=1;rounded=0;strokeColor=default;strokeWidth=2;align=center;verticalAlign=middle;fontFamily=Cascadia Mono;fontSize=12;fontColor=default;fillColor=default;" vertex="1" parent="LgfqwrdV0chA7b1CduBd-1">
          <mxGeometry x="380" y="290" width="310" height="60" as="geometry" />
        </mxCell>
        <mxCell id="1lx8gkwl_eHs_idbSP_l-5" value="" style="edgeStyle=orthogonalEdgeStyle;shape=connector;rounded=0;orthogonalLoop=1;jettySize=auto;html=1;labelBackgroundColor=default;strokeColor=default;strokeWidth=2;align=center;verticalAlign=middle;fontFamily=Cascadia Mono;fontSize=12;fontColor=default;endArrow=none;endFill=0;" edge="1" parent="LgfqwrdV0chA7b1CduBd-1" source="1lx8gkwl_eHs_idbSP_l-3" target="1lx8gkwl_eHs_idbSP_l-4">
          <mxGeometry relative="1" as="geometry" />
        </mxCell>
        <mxCell id="1lx8gkwl_eHs_idbSP_l-3" value="matrix = Tasks2::GenerateMatrix(sideLength)" style="rounded=0;whiteSpace=wrap;html=1;strokeColor=default;strokeWidth=2;align=center;verticalAlign=middle;fontFamily=Cascadia Mono;fontSize=12;fontColor=default;fillColor=default;" vertex="1" parent="LgfqwrdV0chA7b1CduBd-1">
          <mxGeometry x="380" y="490" width="310" height="60" as="geometry" />
        </mxCell>
        <mxCell id="1lx8gkwl_eHs_idbSP_l-8" value="" style="edgeStyle=orthogonalEdgeStyle;shape=connector;rounded=0;orthogonalLoop=1;jettySize=auto;html=1;labelBackgroundColor=default;strokeColor=default;strokeWidth=2;align=center;verticalAlign=middle;fontFamily=Cascadia Mono;fontSize=12;fontColor=default;endArrow=none;endFill=0;" edge="1" parent="LgfqwrdV0chA7b1CduBd-1" source="1lx8gkwl_eHs_idbSP_l-4" target="1lx8gkwl_eHs_idbSP_l-7">
          <mxGeometry relative="1" as="geometry" />
        </mxCell>
        <mxCell id="1lx8gkwl_eHs_idbSP_l-4" value="Tasks2::OutputMatrix(SourceDataGridView, matrix, sideLength)" style="whiteSpace=wrap;html=1;fontFamily=Cascadia Mono;rounded=0;strokeWidth=2;" vertex="1" parent="LgfqwrdV0chA7b1CduBd-1">
          <mxGeometry x="380" y="590" width="310" height="60" as="geometry" />
        </mxCell>
        <mxCell id="1lx8gkwl_eHs_idbSP_l-12" style="edgeStyle=orthogonalEdgeStyle;shape=connector;rounded=0;orthogonalLoop=1;jettySize=auto;html=1;exitX=0.5;exitY=1;exitDx=0;exitDy=0;labelBackgroundColor=default;strokeColor=default;strokeWidth=2;align=center;verticalAlign=middle;fontFamily=Cascadia Mono;fontSize=12;fontColor=default;endArrow=none;endFill=0;" edge="1" parent="LgfqwrdV0chA7b1CduBd-1" source="1lx8gkwl_eHs_idbSP_l-7" target="1lx8gkwl_eHs_idbSP_l-11">
          <mxGeometry relative="1" as="geometry" />
        </mxCell>
        <mxCell id="1lx8gkwl_eHs_idbSP_l-7" value="Tasks2::&lt;br&gt;EndsWith3AndWith5UnderMinorDiagonalCount&lt;br&gt;(matrix, sideLength, endsWith3Count, endsWith5UnderMinorDiagonalCount)" style="whiteSpace=wrap;html=1;fontFamily=Cascadia Mono;rounded=0;strokeWidth=2;" vertex="1" parent="LgfqwrdV0chA7b1CduBd-1">
          <mxGeometry x="380" y="690" width="310" height="60" as="geometry" />
        </mxCell>
        <mxCell id="1lx8gkwl_eHs_idbSP_l-14" style="edgeStyle=orthogonalEdgeStyle;shape=connector;rounded=0;orthogonalLoop=1;jettySize=auto;html=1;exitX=0.5;exitY=1;exitDx=0;exitDy=0;labelBackgroundColor=default;strokeColor=default;strokeWidth=2;align=center;verticalAlign=middle;fontFamily=Cascadia Mono;fontSize=12;fontColor=default;endArrow=none;endFill=0;" edge="1" parent="LgfqwrdV0chA7b1CduBd-1" source="1lx8gkwl_eHs_idbSP_l-11" target="1lx8gkwl_eHs_idbSP_l-13">
          <mxGeometry relative="1" as="geometry" />
        </mxCell>
        <mxCell id="1lx8gkwl_eHs_idbSP_l-11" value="endsWith3Count, endsWith5UnderMinorDiagonalCount" style="shape=parallelogram;perimeter=parallelogramPerimeter;whiteSpace=wrap;html=1;fixedSize=1;rounded=0;strokeColor=default;strokeWidth=2;align=center;verticalAlign=middle;fontFamily=Cascadia Mono;fontSize=12;fontColor=default;fillColor=default;" vertex="1" parent="LgfqwrdV0chA7b1CduBd-1">
          <mxGeometry x="380" y="790" width="310" height="60" as="geometry" />
        </mxCell>
        <mxCell id="1lx8gkwl_eHs_idbSP_l-16" style="edgeStyle=orthogonalEdgeStyle;shape=connector;rounded=0;orthogonalLoop=1;jettySize=auto;html=1;exitX=0.5;exitY=1;exitDx=0;exitDy=0;labelBackgroundColor=default;strokeColor=default;strokeWidth=2;align=center;verticalAlign=middle;fontFamily=Cascadia Mono;fontSize=12;fontColor=default;endArrow=none;endFill=0;" edge="1" parent="LgfqwrdV0chA7b1CduBd-1" source="1lx8gkwl_eHs_idbSP_l-13" target="1lx8gkwl_eHs_idbSP_l-15">
          <mxGeometry relative="1" as="geometry" />
        </mxCell>
        <mxCell id="1lx8gkwl_eHs_idbSP_l-13" value="arrayAboveThreshold = Tasks2::CreateArrayAboveThreshold(matrix, sideLength, endsWith3Count + endsWith5UnderMinorDiagonalCount, arrayLength)" style="whiteSpace=wrap;html=1;fontFamily=Cascadia Mono;rounded=0;strokeWidth=2;" vertex="1" parent="LgfqwrdV0chA7b1CduBd-1">
          <mxGeometry x="380" y="890" width="310" height="90" as="geometry" />
        </mxCell>
        <mxCell id="1lx8gkwl_eHs_idbSP_l-19" style="edgeStyle=orthogonalEdgeStyle;shape=connector;rounded=0;orthogonalLoop=1;jettySize=auto;html=1;exitX=0.5;exitY=1;exitDx=0;exitDy=0;entryX=0.5;entryY=0;entryDx=0;entryDy=0;labelBackgroundColor=default;strokeColor=default;strokeWidth=2;align=center;verticalAlign=middle;fontFamily=Cascadia Mono;fontSize=12;fontColor=default;endArrow=none;endFill=0;" edge="1" parent="LgfqwrdV0chA7b1CduBd-1" source="1lx8gkwl_eHs_idbSP_l-15" target="1lx8gkwl_eHs_idbSP_l-18">
          <mxGeometry relative="1" as="geometry" />
        </mxCell>
        <mxCell id="1lx8gkwl_eHs_idbSP_l-15" value="Tasks1::OutputArray(ResultArrayDataGridView, arrayAboveThreshold, arrayLength)" style="rounded=0;whiteSpace=wrap;html=1;strokeColor=default;strokeWidth=2;align=center;verticalAlign=middle;fontFamily=Cascadia Mono;fontSize=12;fontColor=default;fillColor=default;" vertex="1" parent="LgfqwrdV0chA7b1CduBd-1">
          <mxGeometry x="380" y="1020" width="310" height="60" as="geometry" />
        </mxCell>
        <mxCell id="1lx8gkwl_eHs_idbSP_l-20" style="edgeStyle=orthogonalEdgeStyle;shape=connector;rounded=0;orthogonalLoop=1;jettySize=auto;html=1;exitX=0.5;exitY=1;exitDx=0;exitDy=0;labelBackgroundColor=default;strokeColor=default;strokeWidth=2;align=center;verticalAlign=middle;fontFamily=Cascadia Mono;fontSize=12;fontColor=default;endArrow=none;endFill=0;" edge="1" parent="LgfqwrdV0chA7b1CduBd-1" source="1lx8gkwl_eHs_idbSP_l-18" target="LgfqwrdV0chA7b1CduBd-27">
          <mxGeometry relative="1" as="geometry" />
        </mxCell>
        <mxCell id="1lx8gkwl_eHs_idbSP_l-18" value="Tasks2::DeleteMatrix(matrix, sideLength)" style="rounded=0;whiteSpace=wrap;html=1;strokeColor=default;strokeWidth=2;align=center;verticalAlign=middle;fontFamily=Cascadia Mono;fontSize=12;fontColor=default;fillColor=default;" vertex="1" parent="LgfqwrdV0chA7b1CduBd-1">
          <mxGeometry x="380" y="1120" width="310" height="60" as="geometry" />
        </mxCell>
      </root>
    </mxGraphModel>
  </diagram>
</mxfile>
